<?xml version="1.0" encoding="UTF-8"?>
<svg width="20px" height="20px" viewBox="0 0 20 20" version="1.1" xmlns="http://www.w3.org/2000/svg" xmlns:xlink="http://www.w3.org/1999/xlink">
    <title>切片</title>
    <defs>
        <filter id="filter-1">
            <feColorMatrix in="SourceGraphic" type="matrix" values="0 0 0 0 0.129412 0 0 0 0 0.129412 0 0 0 0 0.129412 0 0 0 1.000000 0"></feColorMatrix>
        </filter>
        <filter id="filter-2">
            <feColorMatrix in="SourceGraphic" type="matrix" values="0 0 0 0 0.011765 0 0 0 0 0.035294 0 0 0 0 0.098039 0 0 0 1.000000 0"></feColorMatrix>
        </filter>
    </defs>
    <g id="首页" stroke="none" stroke-width="1" fill="none" fill-rule="evenodd">
        <g transform="translate(-333.000000, -56.000000)" id="ic/添加" filter="url(#filter-1)">
            <g transform="translate(333.000000, 56.000000)" filter="url(#filter-2)" id="编组备份">
                <g>
                    <rect id="矩形" opacity="0.5" x="0" y="0" width="20" height="20"></rect>
                    <path d="M10,1 C10.5128358,1 10.9355072,1.38604019 10.9932723,1.88337887 L11,2 L11,9 L18,9 C18.5522847,9 19,9.44771525 19,10 C19,10.5128358 18.6139598,10.9355072 18.1166211,10.9932723 L18,11 L11,11 L11,18 C11,18.5522847 10.5522847,19 10,19 C9.48716416,19 9.06449284,18.6139598 9.00672773,18.1166211 L9,18 L9,11 L2,11 C1.44771525,11 1,10.5522847 1,10 C1,9.48716416 1.38604019,9.06449284 1.88337887,9.00672773 L2,9 L9,9 L9,2 C9,1.44771525 9.44771525,1 10,1 Z" id="形状结合" fill="#979797" fill-rule="nonzero"></path>
                </g>
            </g>
        </g>
    </g>
</svg>