<?xml version="1.0" encoding="UTF-8"?>
<svg width="28px" height="28px" viewBox="0 0 28 28" version="1.1" xmlns="http://www.w3.org/2000/svg" xmlns:xlink="http://www.w3.org/1999/xlink">
    <title>切片</title>
    <defs>
        <filter id="filter-1">
            <feColorMatrix in="SourceGraphic" type="matrix" values="0 0 0 0 0.011765 0 0 0 0 0.035294 0 0 0 0 0.098039 0 0 0 1.000000 0"></feColorMatrix>
        </filter>
    </defs>
    <g id="首页" stroke="none" stroke-width="1" fill="none" fill-rule="evenodd">
        <g transform="translate(-242.000000, -196.000000)" id="编组-20">
            <g transform="translate(16.000000, 104.000000)">
                <g id="编组-7" transform="translate(8.000000, 16.000000)">
                    <g id="编组-3备份-8" transform="translate(204.000000, 76.000000)">
                        <g id="编组-4备份" transform="translate(14.000000, 0.000000)" filter="url(#filter-1)">
                            <g>
                                <rect id="矩形" opacity="0.300000012" transform="translate(14.000000, 14.000000) scale(-1, 1) translate(-14.000000, -14.000000) " x="0" y="0" width="28" height="28"></rect>
                                <path d="M14,4 C19.5228475,4 24,8.4771525 24,14 C24,16.4914746 23.0888524,18.7701393 21.5815924,20.520959 L23.5303301,22.4696699 L23.6029482,22.5537883 C23.8208027,22.8473998 23.7965966,23.2640635 23.5303301,23.5303301 C23.2374369,23.8232233 22.7625631,23.8232233 22.4696699,23.5303301 L22.4696699,23.5303301 L20.520959,21.5815924 C18.7701393,23.0888524 16.4914746,24 14,24 C11.7640653,24 9.69952516,23.2661724 8.03408166,22.0262193 L8.03033009,22.0303301 L6.53033009,23.5303301 C6.23743687,23.8232233 5.76256313,23.8232233 5.46966991,23.5303301 C5.20340335,23.2640635 5.1791973,22.8473998 5.39705176,22.5537883 L5.46966991,22.4696699 L6.89899037,21.0409995 C5.10694993,19.2337813 4,16.7461616 4,14 C4,8.4771525 8.4771525,4 14,4 Z M14,5.5 C9.30557963,5.5 5.5,9.30557963 5.5,14 C5.5,18.6944204 9.30557963,22.5 14,22.5 C18.6944204,22.5 22.5,18.6944204 22.5,14 C22.5,9.30557963 18.6944204,5.5 14,5.5 Z M14,9 C16.7614237,9 19,11.2385763 19,14 C19,16.7614237 16.7614237,19 14,19 C11.2385763,19 9,16.7614237 9,14 C9,11.2385763 11.2385763,9 14,9 Z M14,10.5 C12.0670034,10.5 10.5,12.0670034 10.5,14 C10.5,15.9329966 12.0670034,17.5 14,17.5 C15.9329966,17.5 17.5,15.9329966 17.5,14 C17.5,12.0670034 15.9329966,10.5 14,10.5 Z M14,13 C14.5522847,13 15,13.4477153 15,14 C15,14.5522847 14.5522847,15 14,15 C13.4477153,15 13,14.5522847 13,14 C13,13.4477153 13.4477153,13 14,13 Z" id="形状结合" fill="#979797" fill-rule="nonzero"></path>
                            </g>
                        </g>
                    </g>
                </g>
            </g>
        </g>
    </g>
</svg>