<?xml version="1.0" encoding="UTF-8"?>
<svg width="24px" height="24px" viewBox="0 0 24 24" version="1.1" xmlns="http://www.w3.org/2000/svg" xmlns:xlink="http://www.w3.org/1999/xlink">
    <title>切片</title>
    <defs>
        <filter id="filter-1">
            <feColorMatrix in="SourceGraphic" type="matrix" values="0 0 0 0 0.129412 0 0 0 0 0.129412 0 0 0 0 0.129412 0 0 0 1.000000 0"></feColorMatrix>
        </filter>
    </defs>
    <g id="首页" stroke="none" stroke-width="1" fill="none" fill-rule="evenodd">
        <g transform="translate(-129.000000, -880.000000)" id="iPhone-X/Bars/Tab-Bar/4-Items">
            <g transform="translate(0.000000, 873.500000)">
                <g id="Item-2" transform="translate(117.000000, 6.500000)">
                    <g id="编组" transform="translate(12.000000, 0.000000)" filter="url(#filter-1)">
                        <g>
                            <rect id="矩形" x="0" y="0" width="24" height="24"></rect>
                            <path d="M12,2 C17.5228475,2 22,6.4771525 22,12 C22,17.5228475 17.5228475,22 12,22 C6.4771525,22 2,17.5228475 2,12 C2,6.4771525 6.4771525,2 12,2 Z M12,3.5 C7.30557963,3.5 3.5,7.30557963 3.5,12 C3.5,16.6944204 7.30557963,20.5 12,20.5 C16.6944204,20.5 20.5,16.6944204 20.5,12 C20.5,7.30557963 16.6944204,3.5 12,3.5 Z M8,11.25 C8.41421356,11.25 8.75,11.5857864 8.75,12 C8.75,13.7949254 10.2050746,15.25 12,15.25 C12.4142136,15.25 12.75,15.5857864 12.75,16 C12.75,16.4142136 12.4142136,16.75 12,16.75 C9.37664744,16.75 7.25,14.6233526 7.25,12 C7.25,11.5857864 7.58578644,11.25 8,11.25 Z M12,7.25 C14.6233526,7.25 16.75,9.37664744 16.75,12 C16.75,12.4142136 16.4142136,12.75 16,12.75 C15.5857864,12.75 15.25,12.4142136 15.25,12 C15.25,10.2050746 13.7949254,8.75 12,8.75 C11.5857864,8.75 11.25,8.41421356 11.25,8 C11.25,7.58578644 11.5857864,7.25 12,7.25 Z" id="形状结合" fill="#2E3034" fill-rule="nonzero"></path>
                        </g>
                    </g>
                </g>
            </g>
        </g>
    </g>
</svg>