<?xml version="1.0" encoding="UTF-8"?>
<svg width="20px" height="20px" viewBox="0 0 20 20" version="1.1" xmlns="http://www.w3.org/2000/svg" xmlns:xlink="http://www.w3.org/1999/xlink">
    <title>切片</title>
    <g id="我的" stroke="none" stroke-width="1" fill="none" fill-rule="evenodd">
        <g id="我的备份" transform="translate(-32.000000, -689.000000)" fill="#030919" fill-rule="nonzero">
            <g id="编组-13" transform="translate(16.000000, 559.000000)">
                <g id="编组-14备份-2" transform="translate(0.000000, 112.000000)">
                    <g id="编组-15" transform="translate(16.000000, 16.000000)">
                        <g id="ic/邀请好友" transform="translate(0.000000, 2.000000)">
                            <g id="编组" transform="translate(10.000000, 10.000000) rotate(-270.000000) translate(-10.000000, -10.000000) translate(2.000000, 0.000000)">
                                <path d="M6,0 C6,1.1045695 6.8954305,2 8,2 C9.1045695,2 10,1.1045695 10,0 L13,0 C14.6568542,0 16,1.34314575 16,3 L16,17 C16,18.6568542 14.6568542,20 13,20 L10,20 C10,18.8954305 9.1045695,18 8,18 C6.8954305,18 6,18.8954305 6,20 L3,20 C1.34314575,20 0,18.6568542 0,17 L0,3 C0,1.34314575 1.34314575,0 3,0 L6,0 Z M11.1093364,1.60845151 C10.5268586,2.73216835 9.35309764,3.5 8,3.5 C6.64690236,3.5 5.47314142,2.73216835 4.89066364,1.60845151 L4.838,1.5 L3,1.5 C2.22030388,1.5 1.57955132,2.09488808 1.50686658,2.85553999 L1.5,3 L1.5,17 C1.5,17.7796961 2.09488808,18.4204487 2.85553999,18.4931334 L3,18.5 L4.837,18.5 L4.89066364,18.3915485 C5.44540438,17.321342 6.53645638,16.5739338 7.8079648,16.5051789 L8,16.5 C9.35309764,16.5 10.5268586,17.2678317 11.1093364,18.3915485 L11.162,18.5 L13,18.5 C13.7796961,18.5 14.4204487,17.9051119 14.4931334,17.14446 L14.5,17 L14.5,3 C14.5,2.22030388 13.9051119,1.57955132 13.14446,1.50686658 L13,1.5 L11.161,1.5 L11.1093364,1.60845151 Z" id="形状结合"></path>
                                <path d="M2.75,10.75 L4.25,10.75 L4.25,9.25 L2.75,9.25 L2.75,10.75 Z M5.75,10.75 L7.25,10.75 L7.25,9.25 L5.75,9.25 L5.75,10.75 Z M8.75,10.75 L10.25,10.75 L10.25,9.25 L8.75,9.25 L8.75,10.75 Z M11.75,10.75 L13.25,10.75 L13.25,9.25 L11.75,9.25 L11.75,10.75 Z" id="路径-15"></path>
                            </g>
                        </g>
                    </g>
                </g>
            </g>
        </g>
    </g>
</svg>