<?xml version="1.0" encoding="UTF-8"?>
<svg width="24px" height="24px" viewBox="0 0 24 24" version="1.1" xmlns="http://www.w3.org/2000/svg" xmlns:xlink="http://www.w3.org/1999/xlink">
    <title>切片</title>
    <defs>
        <filter id="filter-1">
            <feColorMatrix in="SourceGraphic" type="matrix" values="0 0 0 0 0.011765 0 0 0 0 0.035294 0 0 0 0 0.098039 0 0 0 1.000000 0"></feColorMatrix>
        </filter>
    </defs>
    <g id="我的" stroke="none" stroke-width="1" fill="none" fill-rule="evenodd">
        <g id="我的备份" transform="translate(-44.000000, -290.000000)">
            <g id="编组-6" transform="translate(16.000000, 272.000000)">
                <g id="编组-3" transform="translate(16.000000, 16.000000)">
                    <g id="编组-4" transform="translate(10.000000, 0.000000)" filter="url(#filter-1)">
                        <g id="ic/订单" transform="translate(2.000000, 2.000000)">
                            <rect id="矩形备份" opacity="0.200000003" transform="translate(10.000000, 10.000000) scale(-1, 1) translate(-10.000000, -10.000000) " x="0" y="0" width="20" height="20"></rect>
                            <g transform="translate(4.000000, 3.000000)" fill="#979797" fill-rule="nonzero" id="形状">
                                <path d="M13,0 C14.6568542,0 16,1.34314575 16,3 L16,15 C16,16.6568542 14.6568542,18 13,18 L3,18 C1.34314575,18 0,16.6568542 0,15 L0,3 C0,1.34314575 1.34314575,0 3,0 L13,0 Z M13,1.5 L3,1.5 C2.22030388,1.5 1.57955132,2.09488808 1.50686658,2.85553999 L1.5,3 L1.5,15 C1.5,15.7796961 2.09488808,16.4204487 2.85553999,16.4931334 L3,16.5 L13,16.5 C13.7796961,16.5 14.4204487,15.9051119 14.4931334,15.14446 L14.5,15 L14.5,3 C14.5,2.22030388 13.9051119,1.57955132 13.14446,1.50686658 L13,1.5 Z M7.25,8 C7.66421356,8 8,8.33578644 8,8.75 C8,9.16421356 7.66421356,9.5 7.25,9.5 L3.75,9.5 C3.33578644,9.5 3,9.16421356 3,8.75 C3,8.33578644 3.33578644,8 3.75,8 L7.25,8 Z M12.25,4 C12.6642136,4 13,4.33578644 13,4.75 C13,5.16421356 12.6642136,5.5 12.25,5.5 L3.75,5.5 C3.33578644,5.5 3,5.16421356 3,4.75 C3,4.33578644 3.33578644,4 3.75,4 L12.25,4 Z"></path>
                            </g>
                        </g>
                    </g>
                </g>
            </g>
        </g>
    </g>
</svg>