<?xml version="1.0" encoding="UTF-8"?>
<svg width="24px" height="24px" viewBox="0 0 24 24" version="1.1" xmlns="http://www.w3.org/2000/svg" xmlns:xlink="http://www.w3.org/1999/xlink">
    <title>切片</title>
    <defs>
        <filter id="filter-1">
            <feColorMatrix in="SourceGraphic" type="matrix" values="0 0 0 0 1.000000 0 0 0 0 1.000000 0 0 0 0 1.000000 0 0 0 1.000000 0"></feColorMatrix>
        </filter>
    </defs>
    <g id="消息" stroke="none" stroke-width="1" fill="none" fill-rule="evenodd">
        <g id="信息" transform="translate(-35.000000, -261.000000)">
            <g id="编组-2备份" transform="translate(0.000000, 230.000000)">
                <g id="编组" transform="translate(16.000000, 12.000000)">
                    <g id="ic/粉丝" transform="translate(19.000000, 19.000000)" filter="url(#filter-1)">
                        <g>
                            <rect id="矩形备份-7" opacity="0.5" x="0" y="0" width="24" height="24"></rect>
                            <path d="M8,0 C10.6509668,0 12.8,2.1490332 12.8,4.8 C12.8,7.4509668 10.6509668,9.6 8,9.6 C5.3490332,9.6 3.2,7.4509668 3.2,4.8 C3.2,2.1490332 5.3490332,0 8,0 Z M8,1.6 C6.2326888,1.6 4.8,3.0326888 4.8,4.8 C4.8,6.5673112 6.2326888,8 8,8 C9.7673112,8 11.2,6.5673112 11.2,4.8 C11.2,3.0326888 9.7673112,1.6 8,1.6 Z" id="椭圆形" fill="#2E3034" fill-rule="nonzero"></path>
                            <path d="M8,11.2 C11.8952982,11.2 15.068113,14.2933189 15.1959932,18.1575056 L15.2,18.4 L15.2,22.8 C15.2,23.2418278 14.8418278,23.6 14.4,23.6 C13.992159,23.6 13.6555984,23.2948119 13.6062331,22.9003503 L13.6,22.8 L13.6,18.4 C13.6,15.3072054 11.0927946,12.8 8,12.8 C4.98084337,12.8 2.5197227,15.189236 2.40423802,18.1801079 L2.4,18.4 L2.4,22.8 C2.4,23.2418278 2.0418278,23.6 1.6,23.6 C1.19215895,23.6 0.855598419,23.2948119 0.806233136,22.9003503 L0.8,22.8 L0.8,18.4 C0.8,14.4235498 4.0235498,11.2 8,11.2 Z" id="路径" fill="#2E3034" fill-rule="nonzero"></path>
                            <g id="编组-6" transform="translate(14.000000, 5.600000)" fill="#2E3034" fill-rule="nonzero">
                                <path d="M3.66428571,0 C5.68801483,0 7.32857143,1.6117749 7.32857143,3.6 C7.32857143,5.5882251 5.68801483,7.2 3.66428571,7.2 C1.6405566,7.2 0,5.5882251 0,3.6 C0,1.6117749 1.6405566,0 3.66428571,0 Z M3.66428571,1.5 C2.46309927,1.5 1.5,2.4462028 1.5,3.6 C1.5,4.7537972 2.46309927,5.7 3.66428571,5.7 C4.86547215,5.7 5.82857143,4.7537972 5.82857143,3.6 C5.82857143,2.4462028 4.86547215,1.5 3.66428571,1.5 Z" id="椭圆形备份"></path>
                                <path d="M3.6,8.09210526 C6.59219988,8.09210526 9.03134625,10.4600088 9.14579982,13.4241765 L9.15,13.6421053 L9.15,16.8 C9.15,17.2142136 8.81421356,17.55 8.4,17.55 C8.02030423,17.55 7.70650904,17.2678461 7.65684662,16.9017706 L7.65,16.8 L7.65,13.6421053 C7.65,11.405352 5.83675324,9.59210526 3.6,9.59210526 C3.30420814,9.59210526 3.01301978,9.62368955 2.72963043,9.68569442 C2.3249892,9.7742289 1.9251913,9.51797375 1.83665682,9.11333252 C1.74812235,8.70869129 2.0043775,8.30889339 2.40901873,8.22035892 C2.7975545,8.13534828 3.19622938,8.09210526 3.6,8.09210526 Z" id="路径备份"></path>
                            </g>
                        </g>
                    </g>
                </g>
            </g>
        </g>
    </g>
</svg>