<?xml version="1.0" encoding="UTF-8"?>
<svg width="20px" height="20px" viewBox="0 0 20 20" version="1.1" xmlns="http://www.w3.org/2000/svg" xmlns:xlink="http://www.w3.org/1999/xlink">
    <title>切片</title>
    <g id="我的" stroke="none" stroke-width="1" fill="none" fill-rule="evenodd">
        <g id="我的备份" transform="translate(-32.000000, -745.000000)" fill="#030919">
            <g id="编组-13" transform="translate(16.000000, 559.000000)">
                <g id="编组-14备份-3" transform="translate(0.000000, 168.000000)">
                    <g id="编组-15" transform="translate(16.000000, 16.000000)">
                        <g id="ic/邀请好友" transform="translate(0.000000, 2.000000)">
                            <path d="M10,0 C15.5228475,0 20,4.4771525 20,10 C20,15.5228475 15.5228475,20 10,20 C4.4771525,20 0,15.5228475 0,10 C0,4.4771525 4.4771525,0 10,0 Z M10,1.5 C5.30557963,1.5 1.5,5.30557963 1.5,10 C1.5,14.6944204 5.30557963,18.5 10,18.5 C14.6944204,18.5 18.5,14.6944204 18.5,10 C18.5,5.30557963 14.6944204,1.5 10,1.5 Z" id="椭圆形" fill-rule="nonzero"></path>
                            <path d="M10,5.25 C10.3796958,5.25 10.693491,5.53215388 10.7431534,5.89822944 L10.75,6 L10.75,11 C10.75,11.4142136 10.4142136,11.75 10,11.75 C9.62030423,11.75 9.30650904,11.4678461 9.25684662,11.1017706 L9.25,11 L9.25,6 C9.25,5.58578644 9.58578644,5.25 10,5.25 Z" id="路径-16" fill-rule="nonzero"></path>
                            <rect id="矩形" x="9" y="13" width="2" height="2" rx="1"></rect>
                        </g>
                    </g>
                </g>
            </g>
        </g>
    </g>
</svg>