<?xml version="1.0" encoding="UTF-8"?>
<svg width="24px" height="24px" viewBox="0 0 24 24" version="1.1" xmlns="http://www.w3.org/2000/svg" xmlns:xlink="http://www.w3.org/1999/xlink">
    <title>切片</title>
    <g id="消息" stroke="none" stroke-width="1" fill="none" fill-rule="evenodd">
        <g id="信息" transform="translate(-35.000000, -175.000000)" fill="#FFFFFF">
            <g id="编组-2" transform="translate(0.000000, 144.000000)">
                <g id="编组" transform="translate(16.000000, 12.000000)">
                    <g id="ic/互动消息" transform="translate(19.000000, 19.000000)">
                        <g transform="translate(0.000000, 0.000000)">
                            <path d="M11.2,0 C12.9673112,0 14.4,1.4326888 14.4,3.2 L14.4,6 L12.9,6 L12.9,3.2 C12.9,2.31053088 12.2168932,1.5806099 11.3466825,1.50624001 L11.2,1.5 L3.2,1.5 C2.31053088,1.5 1.5806099,2.18310681 1.50624001,3.05331749 L1.5,3.2 L1.5,11.596 L2.76794971,10.7519246 C2.9732841,10.615035 3.20855618,10.5313471 3.45265233,10.5072536 L3.6,10.5 L6,10.5 L6,12 L3.6,12 L0.932820118,13.7781199 C0.657102905,13.9619314 0.284581299,13.8874271 0.100769823,13.6117099 C0.0350628165,13.5131494 1.45483625e-12,13.3973447 1.45483625e-12,13.2788897 L1.45483625e-12,3.2 C1.45483625e-12,1.4326888 1.4326888,0 3.2,0 L11.2,0 Z" id="路径" fill-rule="nonzero"></path>
                            <path d="M9.2,6 C7.4326888,6 6,7.4326888 6,9.2 L6,17.8 C6,19.5673112 7.4326888,21 9.2,21 L19.5,21 L22.1343598,22.7562398 C22.6857942,23.1238628 23.4308374,22.9748542 23.7984604,22.4234197 C23.9298744,22.2262987 24,21.9946895 24,21.7577795 L24,9.2 C24,7.4326888 22.5673112,6 20.8,6 L9.2,6 Z M9.2,7.5 L20.8,7.5 C21.6894691,7.5 22.4193901,8.18310681 22.49376,9.05331749 L22.5,9.2 L22.5,21.196 L20.3320503,19.7519246 C20.1267159,19.615035 19.8914438,19.5313471 19.6473477,19.5072536 L19.5,19.5 L9.2,19.5 C8.31053088,19.5 7.5806099,18.8168932 7.50624001,17.9466825 L7.5,17.8 L7.5,9.2 C7.5,8.31053088 8.18310681,7.5806099 9.05331749,7.50624001 L9.2,7.5 Z" id="形状" fill-rule="nonzero"></path>
                            <rect id="矩形" x="10.8" y="12.8" width="3.6" height="1.5" rx="0.75"></rect>
                            <rect id="矩形备份-2" x="15.6" y="12.8" width="3.6" height="1.5" rx="0.75"></rect>
                        </g>
                    </g>
                </g>
            </g>
        </g>
    </g>
</svg>