<?xml version="1.0" encoding="UTF-8"?>
<svg width="28px" height="28px" viewBox="0 0 28 28" version="1.1" xmlns="http://www.w3.org/2000/svg" xmlns:xlink="http://www.w3.org/1999/xlink">
    <title>切片</title>
    <defs>
        <filter id="filter-1">
            <feColorMatrix in="SourceGraphic" type="matrix" values="0 0 0 0 0.011765 0 0 0 0 0.035294 0 0 0 0 0.098039 0 0 0 1.000000 0"></feColorMatrix>
        </filter>
    </defs>
    <g id="首页" stroke="none" stroke-width="1" fill="none" fill-rule="evenodd">
        <g transform="translate(-38.000000, -120.000000)" id="编组-20">
            <g transform="translate(16.000000, 104.000000)">
                <g id="编组-7" transform="translate(8.000000, 16.000000)">
                    <g id="编组-4" transform="translate(14.000000, 0.000000)" filter="url(#filter-1)">
                        <g>
                            <rect id="矩形" opacity="0.200000003" transform="translate(14.000000, 14.000000) scale(-1, 1) translate(-14.000000, -14.000000) " x="0" y="0" width="28" height="28"></rect>
                            <g id="编组-12" transform="translate(1.748645, 4.000000)" fill="#0D52E6" fill-rule="nonzero">
                                <path d="M12.2549968,0 C15.2702956,0 17.9738925,1.33455511 19.807342,3.44522014 L19.8087399,3.43842185 C22.2656786,3.93480777 23.9452772,5.0689947 24.3949282,6.74711518 C24.8506326,8.4478271 23.9236652,10.2779371 22.0735478,11.9114437 C21.1802386,16.5201962 17.1239935,20 12.2549968,20 C9.24442557,20 6.54457975,18.6696265 4.71128188,16.564702 C2.29008656,16.0760037 0.570966638,14.9543315 0.115065372,13.2528848 C-0.308978661,11.6703309 0.456475289,9.95893057 2.12282397,8.37759143 L2.33578884,8.18062017 L2.4060483,8.25884424 C3.22999082,3.56602352 7.32604909,0 12.2549968,0 Z M20.0498746,13.3950702 L19.8790677,13.4998036 C19.6153599,13.6586996 19.3425931,13.8139596 19.0613577,13.9651649 L18.5155807,14.2481641 C17.1262895,14.9428669 15.5534657,15.539596 13.8608513,15.9931307 C11.5108306,16.6228169 9.22277293,16.8979985 7.20493122,16.8381901 C8.61677007,17.8823358 10.3637518,18.5 12.2549968,18.5 C15.7424468,18.5 18.739355,16.3997411 20.0498746,13.3950702 Z M12.2549968,1.5 C7.56057641,1.5 3.75499678,5.30557963 3.75499678,10 C3.75499678,11.9523398 4.41321163,13.7509453 5.51983536,15.1860105 C7.67448627,15.5110892 10.4952199,15.3420346 13.4726227,14.544242 C16.4501916,13.7464048 18.9776617,12.4823471 20.6810395,11.1231374 C20.729955,10.7557634 20.7549968,10.3808061 20.7549968,10 C20.7549968,5.30557963 16.9494172,1.5 12.2549968,1.5 Z M2.26534962,10.4591307 L2.18088073,10.5750576 C1.59510154,11.4110658 1.38565655,12.1992407 1.56395411,12.8646562 C1.75934257,13.5938559 2.40409531,14.1852723 3.37771937,14.6071261 C2.72652036,13.355747 2.33272021,11.949953 2.26534962,10.4591307 Z M21.1384883,5.40298262 L21.2219748,5.56854668 C21.8208843,6.77811421 22.1822611,8.12620879 22.2451346,9.55185994 C22.8784693,8.70003705 23.1415374,7.86495213 22.9460394,7.13534375 C22.7595434,6.43933108 22.1382537,5.8393564 21.1384883,5.40298262 Z M10.5119798,3.83191794 C10.670639,4.21454065 10.4890807,4.65333632 10.106458,4.8119955 C9.42567796,5.09428924 8.80690313,5.50921297 8.28555644,6.03055966 C7.76420975,6.55190635 7.34928601,7.17068118 7.06699228,7.85146118 C6.9083331,8.2340839 6.46953743,8.41564222 6.08691472,8.25698304 C5.70429201,8.09832386 5.52273369,7.65952819 5.68139286,7.27690548 C6.03934961,6.41365645 6.56491745,5.62987831 7.22489627,4.96989949 C7.88487509,4.30992067 8.66865322,3.78435283 9.53190226,3.42639608 C9.91452497,3.26773691 10.3533206,3.44929523 10.5119798,3.83191794 Z" id="形状结合"></path>
                            </g>
                        </g>
                    </g>
                </g>
            </g>
        </g>
    </g>
</svg>