<?xml version="1.0" encoding="UTF-8"?>
<svg width="28px" height="28px" viewBox="0 0 28 28" version="1.1" xmlns="http://www.w3.org/2000/svg" xmlns:xlink="http://www.w3.org/1999/xlink">
    <title>切片</title>
    <g id="首页" stroke="none" stroke-width="1" fill="none" fill-rule="evenodd">
        <g transform="translate(-310.000000, -120.000000)" id="编组-20">
            <g transform="translate(16.000000, 104.000000)">
                <g id="编组-7" transform="translate(8.000000, 16.000000)">
                    <g id="编组-3备份-4" transform="translate(272.000000, 0.000000)">
                        <g id="编组-4" transform="translate(14.000000, 0.000000)">
                            <rect id="矩形" opacity="0.100000001" transform="translate(14.000000, 14.000000) scale(-1, 1) translate(-14.000000, -14.000000) " x="0" y="0" width="28" height="28"></rect>
                            <g id="编组" transform="translate(3.843146, 5.621320)" fill="#2E3034" fill-rule="nonzero">
                                <path d="M9.12752086,1.566035 L10,2.43851414 L10.8724791,1.566035 C12.9605258,-0.522011671 16.3459183,-0.522011663 18.433965,1.566035 C19.4009932,2.53306321 19.9201657,3.77835325 19.9914826,5.04416468 L20.130266,5.16641008 C19.5927255,4.67521686 18.9669953,4.33431216 18.3070415,4.14369598 C18.1260021,3.58939205 17.8144154,3.06780572 17.3733048,2.62669517 C15.9228467,1.17623702 13.6022652,1.12622122 12.0917986,2.47664778 L11.9331393,2.62669517 L11.0606602,3.49917431 C10.5114854,4.0483491 9.64242298,4.08267252 9.05326224,3.60214458 L8.93933983,3.49917431 L8.06686069,2.62669517 C6.56460046,1.12443495 4.12895539,1.12443495 2.62669517,2.62669517 C1.17623702,4.07715332 1.12622122,6.3977348 2.4765807,7.90813438 L2.62662065,8.06678618 L9.90468054,15.3444343 C9.94948019,15.3842424 10.0145845,15.3906459 10.066605,15.3638442 L10.1026453,15.3375202 L10.305,15.134 L11.366,16.195 L11.1633055,16.3981803 C10.5441924,17.0172935 9.55439958,17.0398067 8.90832792,16.46572 L8.87208495,16.4325443 L1.566035,9.12752086 C-0.522011665,7.0394742 -0.522011667,3.65408167 1.566035,1.566035 C3.65408166,-0.522011663 7.0394742,-0.522011661 9.12752086,1.566035 Z M19.2221304,6.37288799 C20.4361516,7.58690916 20.4361516,9.55522638 19.2221304,10.7692475 L14.3377878,15.6535902 C13.9535897,16.0377883 13.3306815,16.0377883 12.9464834,15.6535902 L8.06214079,10.7692475 C6.84811962,9.55522638 6.84811962,7.58690916 8.06214079,6.37288799 C9.27616196,5.15886683 11.2444792,5.15886683 12.4585003,6.37288799 L13.6421356,7.55707665 L14.8257709,6.37288799 C16.039792,5.15886683 18.0081093,5.15886683 19.2221304,6.37288799 Z M15.994826,7.33445051 L15.8866789,7.43330025 L14.7030436,8.6174889 C14.1516619,9.16912842 13.2775901,9.20157781 12.6882449,8.71483705 L12.5812276,8.6174889 L11.3978402,7.43354817 C10.7696054,6.80531344 9.75103569,6.80531344 9.12280096,7.43354817 C8.52946816,8.02688097 8.49650523,8.96838297 9.02391216,9.60040123 L9.12275304,9.7086353 L13.6421836,14.2280658 L18.1614703,9.70858738 C18.789705,9.08035264 18.789705,8.0617829 18.1614703,7.43354817 C17.5681375,6.84021537 16.6266355,6.80725243 15.994826,7.33445051 Z" id="形状结合"></path>
                            </g>
                        </g>
                    </g>
                </g>
            </g>
        </g>
    </g>
</svg>