<?xml version="1.0" encoding="UTF-8"?>
<svg width="20px" height="20px" viewBox="0 0 20 20" version="1.1" xmlns="http://www.w3.org/2000/svg" xmlns:xlink="http://www.w3.org/1999/xlink">
    <title>切片</title>
    <g id="我的" stroke="none" stroke-width="1" fill="none" fill-rule="evenodd">
        <g id="我的备份" transform="translate(-32.000000, -633.000000)" fill="#030919" fill-rule="nonzero">
            <g id="编组-13" transform="translate(16.000000, 559.000000)">
                <g id="编组-14备份" transform="translate(0.000000, 56.000000)">
                    <g id="编组-15" transform="translate(16.000000, 16.000000)">
                        <g id="ic/邀请好友" transform="translate(0.000000, 2.000000)">
                            <path d="M10,0 C15.5228475,0 20,4.4771525 20,10 C20,15.5228475 15.5228475,20 10,20 C4.4771525,20 0,15.5228475 0,10 C0,4.4771525 4.4771525,0 10,0 Z M10,1.5 C5.30557963,1.5 1.5,5.30557963 1.5,10 C1.5,14.6944204 5.30557963,18.5 10,18.5 C14.6944204,18.5 18.5,14.6944204 18.5,10 C18.5,5.30557963 14.6944204,1.5 10,1.5 Z" id="椭圆形"></path>
                            <path d="M10,4 L11.7633558,7.57294902 L15.7063391,8.14589803 L12.8531695,10.927051 L13.5267115,14.854102 L10,13 L6.47328849,14.854102 L7.14683045,10.927051 L4.2936609,8.14589803 L8.23664424,7.57294902 L10,4 Z M10.7672575,8.94396067 L10,7.388 L9.23274251,8.94396067 L7.517,9.193 L8.75855131,10.4033711 L8.465,12.112 L10,11.3053364 L11.534,12.112 L11.2414487,10.4033711 L12.482,9.193 L10.7672575,8.94396067 Z" id="星形"></path>
                        </g>
                    </g>
                </g>
            </g>
        </g>
    </g>
</svg>