<?xml version="1.0" encoding="UTF-8"?>
<svg width="16px" height="16px" viewBox="0 0 16 16" version="1.1" xmlns="http://www.w3.org/2000/svg" xmlns:xlink="http://www.w3.org/1999/xlink">
    <title>切片</title>
    <defs>
        <filter id="filter-1">
            <feColorMatrix in="SourceGraphic" type="matrix" values="0 0 0 0 0.980392 0 0 0 0 0.435294 0 0 0 0 0.000000 0 0 0 1.000000 0"></feColorMatrix>
        </filter>
    </defs>
    <g id="消息" stroke="none" stroke-width="1" fill="none" fill-rule="evenodd">
        <g id="信息" transform="translate(-343.000000, -709.000000)">
            <g id="编组-2备份-6" transform="translate(0.000000, 660.000000)">
                <g id="编组" transform="translate(16.000000, 12.000000)">
                    <g id="ic/警示" transform="translate(327.000000, 37.000000)" filter="url(#filter-1)">
                        <g>
                            <path d="M8,0 C12.418278,0 16,3.581722 16,8 C16,12.418278 12.418278,16 8,16 C3.581722,16 0,12.418278 0,8 C0,3.581722 3.581722,0 8,0 Z M8,1 C4.13400675,1 1,4.13400675 1,8 C1,11.8659932 4.13400675,15 8,15 C11.8659932,15 15,11.8659932 15,8 C15,4.13400675 11.8659932,1 8,1 Z M8,11 C8.55228475,11 9,11.4477153 9,12 C9,12.5522847 8.55228475,13 8,13 C7.44771525,13 7,12.5522847 7,12 C7,11.4477153 7.44771525,11 8,11 Z M8,3 C8.50817536,3 8.92013288,3.41195752 8.92013288,3.92013288 C8.92013288,3.94563688 8.91907251,3.97112986 8.91695452,3.99654576 L8.54152274,8.50172712 C8.51805275,8.78336694 8.28261605,9 8,9 C7.71738395,9 7.48194725,8.78336694 7.45847726,8.50172712 L7.08304548,3.99654576 C7.04084381,3.49012576 7.41716713,3.04538003 7.92358712,3.00317836 C7.94900303,3.00106037 7.974496,3 8,3 Z" id="形状结合" fill="#F41111" fill-rule="nonzero"></path>
                        </g>
                    </g>
                </g>
            </g>
        </g>
    </g>
</svg>