<?xml version="1.0" encoding="UTF-8"?>
<svg width="24px" height="24px" viewBox="0 0 24 24" version="1.1" xmlns="http://www.w3.org/2000/svg" xmlns:xlink="http://www.w3.org/1999/xlink">
    <title>切片</title>
    <defs>
        <filter id="filter-1">
            <feColorMatrix in="SourceGraphic" type="matrix" values="0 0 0 0 0.011765 0 0 0 0 0.035294 0 0 0 0 0.098039 0 0 0 1.000000 0"></feColorMatrix>
        </filter>
    </defs>
    <g id="我的" stroke="none" stroke-width="1" fill="none" fill-rule="evenodd">
        <g id="我的备份" transform="translate(-307.000000, -290.000000)">
            <g id="编组-6" transform="translate(16.000000, 272.000000)">
                <g id="编组-3备份-4" transform="translate(279.000000, 16.000000)">
                    <g id="编组-4" transform="translate(10.000000, 0.000000)" filter="url(#filter-1)">
                        <g id="ic/记录" transform="translate(2.000000, 2.000000)">
                            <rect id="矩形备份-2" opacity="0.200000003" transform="translate(12.000000, 12.000000) scale(-1, 1) translate(-12.000000, -12.000000) " x="0" y="0" width="24" height="24"></rect>
                            <g transform="translate(2.000000, 2.000000)" fill="#979797" fill-rule="nonzero" id="形状结合">
                                <path d="M10,0 C15.5228475,0 20,4.4771525 20,10 C20,15.5228475 15.5228475,20 10,20 C4.4771525,20 0,15.5228475 0,10 C0,4.4771525 4.4771525,0 10,0 Z M10,1.5 C5.30557963,1.5 1.5,5.30557963 1.5,10 C1.5,14.6944204 5.30557963,18.5 10,18.5 C14.6944204,18.5 18.5,14.6944204 18.5,10 C18.5,5.30557963 14.6944204,1.5 10,1.5 Z M10,6.25 C10.3796958,6.25 10.693491,6.53215388 10.7431534,6.89822944 L10.75,7 L10.75,9.689 L12.5303301,11.4696699 C12.7965966,11.7359365 12.8208027,12.1526002 12.6029482,12.4462117 L12.5303301,12.5303301 C12.2640635,12.7965966 11.8473998,12.8208027 11.5537883,12.6029482 L11.4696699,12.5303301 L9.46966991,10.5303301 C9.35714809,10.4178083 9.28407244,10.273214 9.25934305,10.1180341 L9.25,10 L9.25,7 C9.25,6.58578644 9.58578644,6.25 10,6.25 Z"></path>
                            </g>
                        </g>
                    </g>
                </g>
            </g>
        </g>
    </g>
</svg>