<?xml version="1.0" encoding="UTF-8"?>
<svg width="28px" height="28px" viewBox="0 0 28 28" version="1.1" xmlns="http://www.w3.org/2000/svg" xmlns:xlink="http://www.w3.org/1999/xlink">
    <title>切片</title>
    <defs>
        <filter id="filter-1">
            <feColorMatrix in="SourceGraphic" type="matrix" values="0 0 0 0 0.011765 0 0 0 0 0.035294 0 0 0 0 0.098039 0 0 0 1.000000 0"></feColorMatrix>
        </filter>
    </defs>
    <g id="首页" stroke="none" stroke-width="1" fill="none" fill-rule="evenodd">
        <g transform="translate(-174.000000, -120.000000)" id="编组-20">
            <g transform="translate(16.000000, 104.000000)">
                <g id="编组-7" transform="translate(8.000000, 16.000000)">
                    <g id="编组-3备份-2" transform="translate(136.000000, 0.000000)">
                        <g id="编组-4" transform="translate(14.000000, 0.000000)" filter="url(#filter-1)">
                            <g>
                                <rect id="矩形" opacity="0.300000012" transform="translate(14.000000, 14.000000) scale(-1, 1) translate(-14.000000, -14.000000) " x="0" y="0" width="28" height="28"></rect>
                                <path d="M14,4 C19.5228475,4 24,8.4771525 24,14 C24,19.5228475 19.5228475,24 14,24 C8.4771525,24 4,19.5228475 4,14 C4,8.4771525 8.4771525,4 14,4 Z M14,5.5 C9.30557963,5.5 5.5,9.30557963 5.5,14 C5.5,18.6944204 9.30557963,22.5 14,22.5 C18.6944204,22.5 22.5,18.6944204 22.5,14 C22.5,9.30557963 18.6944204,5.5 14,5.5 Z M14.5144958,9.42930346 C14.6552454,9.51375322 14.7730432,9.63155102 14.8574929,9.77230063 L15.0606602,10.1109127 C15.7570508,11.2715637 16.7284363,12.2429492 17.8890873,12.9393398 L18.2276994,13.1425071 C18.7012796,13.4266552 18.8548447,14.0409155 18.5706965,14.5144958 C18.4862468,14.6552454 18.368449,14.7730432 18.2276994,14.8574929 L17.8890873,15.0606602 C16.7284363,15.7570508 15.7570508,16.7284363 15.0606602,17.8890873 L14.8574929,18.2276994 C14.5733448,18.7012796 13.9590845,18.8548447 13.4855042,18.5706965 C13.3447546,18.4862468 13.2269568,18.368449 13.1425071,18.2276994 L12.9393398,17.8890873 C12.2429492,16.7284363 11.2715637,15.7570508 10.1109127,15.0606602 L9.77230063,14.8574929 C9.29872036,14.5733448 9.1451553,13.9590845 9.42930346,13.4855042 C9.51375322,13.3447546 9.63155102,13.2269568 9.77230063,13.1425071 L10.1109127,12.9393398 C11.2715637,12.2429492 12.2429492,11.2715637 12.9393398,10.1109127 L13.1425071,9.77230063 C13.4266552,9.29872036 14.0409155,9.1451553 14.5144958,9.42930346 Z M14,11.2380409 L13.8229938,11.4995309 C13.1856053,12.3999107 12.3999107,13.1856053 11.4995309,13.8229938 L11.238748,13.9992929 L11.4995309,14.1770062 C12.3999107,14.8143947 13.1856053,15.6000893 13.8229938,16.5004691 L14,16.7605449 L14.1770062,16.5004691 C14.8143947,15.6000893 15.6000893,14.8143947 16.5004691,14.1770062 L16.761252,13.9992929 L16.5004691,13.8229938 C15.6000893,13.1856053 14.8143947,12.3999107 14.1770062,11.4995309 L14,11.2380409 Z" id="形状结合" fill="#0D52E6" fill-rule="nonzero"></path>
                            </g>
                        </g>
                    </g>
                </g>
            </g>
        </g>
    </g>
</svg>