<?xml version="1.0" encoding="UTF-8"?>
<svg width="28px" height="28px" viewBox="0 0 28 28" version="1.1" xmlns="http://www.w3.org/2000/svg" xmlns:xlink="http://www.w3.org/1999/xlink">
    <title>切片</title>
    <defs>
        <filter id="filter-1">
            <feColorMatrix in="SourceGraphic" type="matrix" values="0 0 0 0 0.011765 0 0 0 0 0.035294 0 0 0 0 0.098039 0 0 0 1.000000 0"></feColorMatrix>
        </filter>
    </defs>
    <g id="首页" stroke="none" stroke-width="1" fill="none" fill-rule="evenodd">
        <g transform="translate(-106.000000, -120.000000)" id="编组-20">
            <g transform="translate(16.000000, 104.000000)">
                <g id="编组-7" transform="translate(8.000000, 16.000000)">
                    <g id="编组-3备份" transform="translate(68.000000, 0.000000)">
                        <g id="编组-4" transform="translate(14.000000, 0.000000)" filter="url(#filter-1)">
                            <g>
                                <rect id="矩形" opacity="0.300000012" transform="translate(14.000000, 14.000000) scale(-1, 1) translate(-14.000000, -14.000000) " x="0" y="0" width="28" height="28"></rect>
                                <path d="M17.9231736,6.09657473 C17.9742262,6.31780265 18,6.54411104 18,6.77115325 L18,9.69148838 L21.2571745,11.195619 C22.3196258,11.6859811 23,12.7493443 23,13.9194972 L23,22.4994884 L24.25,22.5 C24.6642136,22.5 25,22.8357864 25,23.25 C25,23.6642136 24.6642136,24 24.25,24 L3.75,24 C3.33578644,24 3,23.6642136 3,23.25 C3,22.8357864 3.33578644,22.5 3.75,22.5 L5,22.4994884 L5,8.38653786 C5,6.98956991 5.96422821,5.7774858 7.32542148,5.46336427 L14.3254215,3.84797966 C15.9398457,3.47542023 17.5506142,4.48215053 17.9231736,6.09657473 Z M14.8050153,5.28377398 L14.6627107,5.30956645 L7.66271074,6.92495107 C7.02748721,7.07154111 6.56516403,7.60924375 6.50634415,8.24817927 L6.5,8.38653786 L6.5,22.5 L16.5,22.5 L16.5,6.77115325 C16.5,6.69547251 16.4942725,6.61995485 16.4828908,6.5452442 L16.4615868,6.43386399 C16.2862647,5.67413495 15.5625317,5.18355754 14.8050153,5.28377398 Z M18,11.344 L18,22.5 L21.5,22.5 L21.5,13.9194972 C21.5,13.3831771 21.2141483,12.8917235 20.7573274,12.6246872 L20.6285873,12.5575581 L18,11.344 Z M14.25,18 C14.6642136,18 15,18.3357864 15,18.75 C15,19.1642136 14.6642136,19.5 14.25,19.5 L11.75,19.5 C11.3357864,19.5 11,19.1642136 11,18.75 C11,18.3357864 11.3357864,18 11.75,18 L14.25,18 Z M11.25,15 C11.6642136,15 12,15.3357864 12,15.75 C12,16.1642136 11.6642136,16.5 11.25,16.5 L8.75,16.5 C8.33578644,16.5 8,16.1642136 8,15.75 C8,15.3357864 8.33578644,15 8.75,15 L11.25,15 Z" id="形状结合" fill="#0D52E6" fill-rule="nonzero"></path>
                            </g>
                        </g>
                    </g>
                </g>
            </g>
        </g>
    </g>
</svg>