<?xml version="1.0" encoding="UTF-8"?>
<svg width="24px" height="24px" viewBox="0 0 24 24" version="1.1" xmlns="http://www.w3.org/2000/svg" xmlns:xlink="http://www.w3.org/1999/xlink">
    <title>切片</title>
    <g id="消息" stroke="none" stroke-width="1" fill="none" fill-rule="evenodd">
        <g id="信息" transform="translate(-35.000000, -347.000000)">
            <g id="编组-2备份-2" transform="translate(0.000000, 316.000000)">
                <g id="编组" transform="translate(16.000000, 12.000000)">
                    <g id="ic/客服" transform="translate(19.000000, 19.000000)">
                        <rect id="矩形" opacity="0.200000003" x="0" y="0" width="24" height="24"></rect>
                        <g id="编组-7" transform="translate(1.650000, 0.050000)" fill="#FFFFFF" fill-rule="nonzero">
                            <path d="M10.35,0 C15.9724398,0 20.5477795,4.48316856 20.6962797,10.0697662 L20.7,10.35 L20.7,13.6730769 C20.7,19.2271143 16.2726037,23.747078 10.7545782,23.8962006 L10.35,23.9 C9.93578644,23.9 9.6,23.5642136 9.6,23.15 C9.6,22.7703042 9.88215388,22.456509 10.2482294,22.4068466 L10.35,22.4 L10.4730769,22.4 C14.549507,22.4 17.9731407,19.6050462 18.9321907,15.8269257 C18.745935,15.8747873 18.5509119,15.9 18.35,15.9 C17.1062087,15.9 16.0881042,14.9337201 16.0054215,13.7108954 L16,13.55 L16,11.15 C16,9.85213084 17.0521308,8.8 18.35,8.8 C18.6064101,8.8 18.8532288,8.8410656 19.084238,8.91697867 C18.3997897,4.71076616 14.7498521,1.5 10.35,1.5 C5.95014786,1.5 2.30021035,4.71076616 1.61540903,8.9170769 C1.8467712,8.8410656 2.09358991,8.8 2.35,8.8 C3.64786916,8.8 4.7,9.85213084 4.7,11.15 L4.7,13.55 C4.7,14.8478692 3.64786916,15.9 2.35,15.9 C1.20096947,15.9 0.244546891,15.0753474 0.0402945574,13.9856044 L0.006846616,13.7748475 L0.006846616,13.7748475 L7.28306304e-13,13.6730769 L7.28306304e-13,10.35 C7.28306304e-13,4.63385284 4.63385284,0 10.35,0 Z M8.48033009,17.8196699 C9.51292027,18.8522601 11.1870797,18.8522601 12.2196699,17.8196699 C12.5125631,17.5267767 12.9874369,17.5267767 13.2803301,17.8196699 C13.5732233,18.1125631 13.5732233,18.5874369 13.2803301,18.8803301 C11.6619535,20.4987067 9.03804653,20.4987067 7.41966991,18.8803301 C7.1267767,18.5874369 7.1267767,18.1125631 7.41966991,17.8196699 C7.71256313,17.5267767 8.18743687,17.5267767 8.48033009,17.8196699 Z M18.35,10.3 C17.9166689,10.3 17.5590733,10.6242624 17.5066227,11.0433778 L17.5,11.15 L17.5,13.55 C17.5,14.019442 17.880558,14.4 18.35,14.4 C18.7833311,14.4 19.1409267,14.0757376 19.1933773,13.6566222 L19.2,13.55 L19.2,11.15 C19.2,10.680558 18.819442,10.3 18.35,10.3 Z M2.35,10.3 C1.88055796,10.3 1.5,10.680558 1.5,11.15 L1.5,13.55 C1.5,14.019442 1.88055796,14.4 2.35,14.4 C2.81944204,14.4 3.2,14.019442 3.2,13.55 L3.2,11.15 C3.2,10.680558 2.81944204,10.3 2.35,10.3 Z" id="形状"></path>
                        </g>
                    </g>
                </g>
            </g>
        </g>
    </g>
</svg>