<?xml version="1.0" encoding="UTF-8"?>
<svg width="12px" height="12px" viewBox="0 0 12 12" version="1.1" xmlns="http://www.w3.org/2000/svg" xmlns:xlink="http://www.w3.org/1999/xlink">
    <title>切片</title>
    <defs>
        <filter id="filter-1">
            <feColorMatrix in="SourceGraphic" type="matrix" values="0 0 0 0 0.588235 0 0 0 0 0.592157 0 0 0 0 0.600000 0 0 0 1.000000 0"></feColorMatrix>
        </filter>
    </defs>
    <g id="首页" stroke="none" stroke-width="1" fill="none" fill-rule="evenodd">
        <g transform="translate(-136.000000, -566.000000)" id="编组-19">
            <g transform="translate(16.000000, 472.000000)">
                <g id="编组-15" transform="translate(120.000000, 12.000000)">
                    <g id="编组-18" transform="translate(0.000000, 79.000000)">
                        <g id="编组-16" transform="translate(0.000000, 3.000000)" filter="url(#filter-1)">
                            <g transform="translate(0.000000, -0.000000)">
                                <rect id="矩形" opacity="0.5" x="0" y="0" width="12" height="12"></rect>
                                <path d="M8.82842712,2.82842712 L11.2928932,5.29289322 C11.6834175,5.68341751 11.6834175,6.31658249 11.2928932,6.70710678 L8.82842712,9.17157288 C7.26632996,10.73367 4.73367004,10.73367 3.17157288,9.17157288 L0.707106781,6.70710678 C0.316582489,6.31658249 0.316582489,5.68341751 0.707106781,5.29289322 L3.17157288,2.82842712 C4.73367004,1.26632996 7.26632996,1.26632996 8.82842712,2.82842712 Z M4.02266925,3.40056871 L3.87867966,3.53553391 L1.41421356,6 L3.87867966,8.46446609 C5.00338962,9.58917605 6.79895255,9.63416445 7.97733075,8.59943129 L8.12132034,8.46446609 L10.5857864,6 L8.12132034,3.53553391 C6.99661038,2.41082395 5.20104745,2.36583555 4.02266925,3.40056871 Z M6,4 C7.1045695,4 8,4.8954305 8,6 C8,7.1045695 7.1045695,8 6,8 C4.8954305,8 4,7.1045695 4,6 C4,4.8954305 4.8954305,4 6,4 Z M6,5 C5.44771525,5 5,5.44771525 5,6 C5,6.55228475 5.44771525,7 6,7 C6.55228475,7 7,6.55228475 7,6 C7,5.44771525 6.55228475,5 6,5 Z" id="形状结合" fill="#979797" fill-rule="nonzero"></path>
                            </g>
                        </g>
                    </g>
                </g>
            </g>
        </g>
    </g>
</svg>