<?xml version="1.0" encoding="UTF-8"?>
<svg width="20px" height="20px" viewBox="0 0 20 20" version="1.1" xmlns="http://www.w3.org/2000/svg" xmlns:xlink="http://www.w3.org/1999/xlink">
    <title>切片</title>
    <defs>
        <filter id="filter-1">
            <feColorMatrix in="SourceGraphic" type="matrix" values="0 0 0 0 0.011765 0 0 0 0 0.035294 0 0 0 0 0.098039 0 0 0 1.000000 0"></feColorMatrix>
        </filter>
    </defs>
    <g id="消息" stroke="none" stroke-width="1" fill="none" fill-rule="evenodd">
        <g id="编组备份" transform="translate(-338.000000, -60.000000)" filter="url(#filter-1)">
            <g transform="translate(338.000000, 60.000000)" id="ic/提醒">
                <rect id="矩形" opacity="0.5" x="0" y="0" width="20" height="20"></rect>
                <path d="M12.8286475,18.001828 C12.4162954,19.1660654 11.3055356,20 10,20 C8.69446435,20 7.58370457,19.1660654 7.17135248,18.001828 L12.8286475,18.001828 Z M10,0 C10.5522847,-1.01453063e-16 11,0.44771525 11,1 L11.000508,2.06646856 C14.4787487,2.53215319 17.2261568,5.39235261 17.4656331,8.9844961 L17.867,15 L19,15 C19.5522847,15 20,15.4477153 20,16 C20,16.5522847 19.5522847,17 19,17 L1,17 C0.44771525,17 6.76353751e-17,16.5522847 0,16 C-6.76353751e-17,15.4477153 0.44771525,15 1,15 L2.133,15 L2.53436693,8.9844961 C2.77386619,5.39200712 5.52177981,2.531603 9.00049567,2.06633426 L9,1 C9,0.44771525 9.44771525,1.01453063e-16 10,0 Z M10,4 C7.18976931,4 4.84815473,6.1215174 4.5496334,8.89154522 L4.52993724,9.11753413 L4.137,15 L15.862,15 L15.4700628,9.11753413 C15.283129,6.31352766 13.0105485,4.11822061 10.2267985,4.00461997 L10,4 Z" id="形状结合" fill="#979797" fill-rule="nonzero"></path>
            </g>
        </g>
    </g>
</svg>