<?xml version="1.0" encoding="UTF-8"?>
<svg width="28px" height="28px" viewBox="0 0 28 28" version="1.1" xmlns="http://www.w3.org/2000/svg" xmlns:xlink="http://www.w3.org/1999/xlink">
    <title>切片</title>
    <defs>
        <filter id="filter-1">
            <feColorMatrix in="SourceGraphic" type="matrix" values="0 0 0 0 0.011765 0 0 0 0 0.035294 0 0 0 0 0.098039 0 0 0 1.000000 0"></feColorMatrix>
        </filter>
    </defs>
    <g id="首页" stroke="none" stroke-width="1" fill="none" fill-rule="evenodd">
        <g transform="translate(-310.000000, -196.000000)" id="编组-20">
            <g transform="translate(16.000000, 104.000000)">
                <g id="编组-7" transform="translate(8.000000, 16.000000)">
                    <g id="编组-3备份-9" transform="translate(272.000000, 76.000000)">
                        <g id="编组-4" transform="translate(14.000000, 0.000000)" filter="url(#filter-1)">
                            <g>
                                <rect id="矩形" opacity="0.200000003" transform="translate(14.000000, 14.000000) scale(-1, 1) translate(-14.000000, -14.000000) " x="0" y="0" width="28" height="28"></rect>
                                <path d="M9,15 C11.209139,15 13,16.790861 13,19 C13,21.1421954 11.3160315,22.8910789 9.19964034,22.9951047 L9,23 C6.790861,23 5,21.209139 5,19 C5,16.8578046 6.68396847,15.1089211 8.80035966,15.0048953 L9,15 Z M19,15 C21.209139,15 23,16.790861 23,19 C23,21.1421954 21.3160315,22.8910789 19.1996403,22.9951047 L19,23 C16.790861,23 15,21.209139 15,19 C15,16.8578046 16.6839685,15.1089211 18.8003597,15.0048953 L19,15 Z M9,16.5 C7.61928813,16.5 6.5,17.6192881 6.5,19 C6.5,20.3807119 7.61928813,21.5 9,21.5 C10.3807119,21.5 11.5,20.3807119 11.5,19 C11.5,17.6192881 10.3807119,16.5 9,16.5 Z M19,16.5 C17.6192881,16.5 16.5,17.6192881 16.5,19 C16.5,20.3807119 17.6192881,21.5 19,21.5 C20.3807119,21.5 21.5,20.3807119 21.5,19 C21.5,17.6192881 20.3807119,16.5 19,16.5 Z M9,5 C11.209139,5 13,6.790861 13,9 C13,11.1421954 11.3160315,12.8910789 9.19964034,12.9951047 L9,13 C6.790861,13 5,11.209139 5,9 C5,6.85780461 6.68396847,5.10892112 8.80035966,5.00489531 L9,5 Z M19,5 C21.209139,5 23,6.790861 23,9 C23,11.1421954 21.3160315,12.8910789 19.1996403,12.9951047 L19,13 C16.790861,13 15,11.209139 15,9 C15,6.85780461 16.6839685,5.10892112 18.8003597,5.00489531 L19,5 Z M9,6.5 C7.61928813,6.5 6.5,7.61928813 6.5,9 C6.5,10.3807119 7.61928813,11.5 9,11.5 C10.3807119,11.5 11.5,10.3807119 11.5,9 C11.5,7.61928813 10.3807119,6.5 9,6.5 Z M19,6.5 C17.6192881,6.5 16.5,7.61928813 16.5,9 C16.5,10.3807119 17.6192881,11.5 19,11.5 C20.3807119,11.5 21.5,10.3807119 21.5,9 C21.5,7.61928813 20.3807119,6.5 19,6.5 Z" id="形状结合" fill="#979797" fill-rule="nonzero"></path>
                            </g>
                        </g>
                    </g>
                </g>
            </g>
        </g>
    </g>
</svg>