<?xml version="1.0" encoding="UTF-8"?>
<svg width="28px" height="28px" viewBox="0 0 28 28" version="1.1" xmlns="http://www.w3.org/2000/svg" xmlns:xlink="http://www.w3.org/1999/xlink">
    <title>切片</title>
    <defs>
        <filter id="filter-1">
            <feColorMatrix in="SourceGraphic" type="matrix" values="0 0 0 0 0.011765 0 0 0 0 0.035294 0 0 0 0 0.098039 0 0 0 1.000000 0"></feColorMatrix>
        </filter>
    </defs>
    <g id="首页" stroke="none" stroke-width="1" fill="none" fill-rule="evenodd">
        <g transform="translate(-174.000000, -196.000000)" id="编组-20">
            <g transform="translate(16.000000, 104.000000)">
                <g id="编组-7" transform="translate(8.000000, 16.000000)">
                    <g id="编组-3备份-7" transform="translate(136.000000, 76.000000)">
                        <g id="编组-4" transform="translate(14.000000, 0.000000)" filter="url(#filter-1)">
                            <g>
                                <rect id="矩形" opacity="0.200000003" transform="translate(14.000000, 14.000000) scale(-1, 1) translate(-14.000000, -14.000000) " x="0" y="0" width="28" height="28"></rect>
                                <g id="编组-22" transform="translate(3.248895, 3.000000)" fill="#0D52E6">
                                    <path d="M15.5020176,4 C16.6065871,4 17.5020176,4.8954305 17.5020176,6 C17.5020176,6.07809481 17.4974435,6.15612259 17.4883189,6.2336825 L17.3935123,7.04088526 C19.8515239,7.35615216 21.751105,9.45624061 21.751105,12 C21.751105,14.6887547 19.6287983,16.8818181 16.9679947,16.9953805 L16.751105,17 L16.221,17 L16.0628081,18.3505237 C15.8850624,19.8613625 14.6046148,21 13.0833563,21 L4.41885375,21 C2.8975953,21 1.61714767,19.8613625 1.43940194,18.3505237 L0.0138912045,6.2336825 C-0.115168074,5.13667863 0.669506052,4.14275807 1.76650992,4.01369879 C1.84406983,4.0045741 1.9220976,4 2.00019241,4 L15.5020176,4 Z M15.5020176,5.5 L1.97093195,5.50085691 L1.94177179,5.5034247 C1.69799315,5.53210454 1.51590928,5.73162117 1.50111642,5.96821935 L1.50361711,6.05842062 L2.92912785,18.1752619 C3.01244616,18.8834675 3.58035027,19.4281082 4.27775199,19.4934219 L4.41885375,19.5 L13.0833563,19.5 C13.7964462,19.5 14.403711,18.9996222 14.5500626,18.3146286 L14.5730822,18.1752619 L15.9985929,6.05842062 C16.0008741,6.03903065 16.0020176,6.0195237 16.0020176,6 C16.0020176,5.72385763 15.77816,5.5 15.5020176,5.5 Z M17.2180157,8.5308725 L16.397,15.5 L16.751105,15.5 L16.9431402,15.4948211 C18.723252,15.3985642 20.1496692,13.972147 20.2459262,12.1920352 L20.251105,12 L20.2459262,11.8079648 C20.154678,10.1204817 18.8680985,8.75084168 17.2180157,8.5308725 Z M6.00110503,0 C6.41531859,-7.6089797e-17 6.75110503,0.335786438 6.75110503,0.75 L6.75110503,2.25 C6.75110503,2.66421356 6.41531859,3 6.00110503,3 C5.58689147,3 5.25110503,2.66421356 5.25110503,2.25 L5.25110503,0.75 C5.25110503,0.335786438 5.58689147,7.6089797e-17 6.00110503,0 Z M11.501105,0 C11.9153186,-7.6089797e-17 12.251105,0.335786438 12.251105,0.75 L12.251105,2.25 C12.251105,2.66421356 11.9153186,3 11.501105,3 C11.0868915,3 10.751105,2.66421356 10.751105,2.25 L10.751105,0.75 C10.751105,0.335786438 11.0868915,7.6089797e-17 11.501105,0 Z" id="形状结合"></path>
                                </g>
                            </g>
                        </g>
                    </g>
                </g>
            </g>
        </g>
    </g>
</svg>