<?xml version="1.0" encoding="UTF-8"?>
<svg width="16px" height="16px" viewBox="0 0 16 16" version="1.1" xmlns="http://www.w3.org/2000/svg" xmlns:xlink="http://www.w3.org/1999/xlink">
    <title>切片</title>
    <defs>
        <filter id="filter-1">
            <feColorMatrix in="SourceGraphic" type="matrix" values="0 0 0 0 0.694118 0 0 0 0 0.698039 0 0 0 0 0.705882 0 0 0 1.000000 0"></feColorMatrix>
        </filter>
    </defs>
    <g id="首页" stroke="none" stroke-width="1" fill="none" fill-rule="evenodd">
        <g transform="translate(-80.000000, -58.000000)" id="iPhone-X/Bars/Navigation/Navigation-Bar---1-Action">
            <g id="编组-5" transform="translate(72.000000, 50.000000)">
                <g id="编组-2" transform="translate(8.000000, 8.000000)" filter="url(#filter-1)">
                    <g>
                        <rect id="矩形" opacity="0.200000003" x="0" y="0" width="16" height="16"></rect>
                        <g id="编组" transform="translate(1.000000, 1.000000)" fill="#979797" fill-rule="nonzero">
                            <path d="M6,0 C9.3137085,0 12,2.6862915 12,6 C12,7.38645854 11.5297397,8.6630819 10.7400213,9.67906791 L14.0303301,12.9696699 C14.3232233,13.2625631 14.3232233,13.7374369 14.0303301,14.0303301 C13.7640635,14.2965966 13.3473998,14.3208027 13.0537883,14.1029482 L12.9696699,14.0303301 L9.67906791,10.7400213 C8.6630819,11.5297397 7.38645854,12 6,12 C2.6862915,12 0,9.3137085 0,6 C0,2.6862915 2.6862915,0 6,0 Z M6,1.5 C3.51471863,1.5 1.5,3.51471863 1.5,6 C1.5,8.48528137 3.51471863,10.5 6,10.5 C8.48528137,10.5 10.5,8.48528137 10.5,6 C10.5,3.51471863 8.48528137,1.5 6,1.5 Z" id="形状结合"></path>
                        </g>
                    </g>
                </g>
            </g>
        </g>
    </g>
</svg>