<?xml version="1.0" encoding="UTF-8"?>
<svg width="12px" height="12px" viewBox="0 0 12 12" version="1.1" xmlns="http://www.w3.org/2000/svg" xmlns:xlink="http://www.w3.org/1999/xlink">
    <title>切片</title>
    <defs>
        <filter id="filter-1">
            <feColorMatrix in="SourceGraphic" type="matrix" values="0 0 0 0 0.588235 0 0 0 0 0.592157 0 0 0 0 0.600000 0 0 0 1.000000 0"></feColorMatrix>
        </filter>
    </defs>
    <g id="首页" stroke="none" stroke-width="1" fill="none" fill-rule="evenodd">
        <g transform="translate(-249.000000, -566.000000)" id="编组-19">
            <g transform="translate(16.000000, 472.000000)">
                <g id="编组-15" transform="translate(120.000000, 12.000000)">
                    <g id="编组-18" transform="translate(0.000000, 79.000000)">
                        <g id="编组-17备份-2" transform="translate(113.000000, 0.000000)">
                            <g id="编组-16" transform="translate(0.000000, 3.000000)" filter="url(#filter-1)">
                                <g>
                                    <rect id="矩形" opacity="0.200000003" x="0" y="0" width="12" height="12"></rect>
                                    <path d="M6.22128286,0.681407693 C6.31988916,0.730072812 6.39970292,0.809886573 6.44836804,0.908492875 L7.79396679,3.63497374 C7.86679779,3.78254548 8.00758059,3.88483016 8.17043567,3.90849439 L11.1792859,4.34570593 C11.4525584,4.38541474 11.6418991,4.63913616 11.6021903,4.9124086 C11.586378,5.02122711 11.5351344,5.12179832 11.4563926,5.19855262 L9.27916812,7.320822 C9.16132507,7.43569058 9.10755083,7.60119068 9.1353698,7.76338771 L9.64934279,10.7600802 C9.69602329,11.0322484 9.51322938,11.2907264 9.24106116,11.3374069 C9.13268234,11.3559953 9.0211983,11.3383379 8.92386806,11.2871684 L6.23267056,9.87232215 C6.08700855,9.7957431 5.91299145,9.7957431 5.76732944,9.87232215 L3.07613194,11.2871684 C2.83170964,11.4156688 2.52939607,11.3216956 2.40089566,11.0772733 C2.34972613,10.979943 2.33206879,10.868459 2.35065721,10.7600802 L2.8646302,7.76338771 C2.89244917,7.60119068 2.83867493,7.43569058 2.72083188,7.320822 L0.54360737,5.19855262 C0.345865581,5.00580201 0.341819427,4.68924538 0.534570033,4.49150359 C0.611324336,4.41276177 0.711895541,4.36151819 0.820714057,4.34570593 L3.82956433,3.90849439 C3.99241941,3.88483016 4.13320221,3.78254548 4.20603321,3.63497374 L5.55163196,0.908492875 C5.67384311,0.660866045 5.97365603,0.559196546 6.22128286,0.681407693 Z M6,2.259 L5.10276929,4.07753945 C4.90612557,4.47598314 4.54435901,4.7643793 4.11780808,4.86982776 L3.97336265,4.89810141 L1.967,5.189 L3.41884357,6.60473564 C3.73309169,6.91105184 3.89547302,7.33738351 3.8690637,7.77009068 L3.85023852,7.93243277 L3.507,9.93 L5.30198831,8.98719073 C5.69042034,8.78297993 6.14606444,8.76028984 6.54943249,8.91912046 L6.69801169,8.98719073 L8.492,9.93 L8.14976148,7.93243277 C8.07557756,7.49990735 8.19479977,7.05955243 8.47050426,6.72500799 L8.58115643,6.60473564 L10.032,5.189 L8.02663735,4.89810141 C7.58692863,4.83420799 7.20085557,4.57926686 6.96875664,4.20617818 L6.89723071,4.07753945 L6,2.259 Z" id="星形" fill="#979797" fill-rule="nonzero"></path>
                                </g>
                            </g>
                        </g>
                    </g>
                </g>
            </g>
        </g>
    </g>
</svg>