<?xml version="1.0" encoding="UTF-8"?>
<svg width="20px" height="20px" viewBox="0 0 20 20" version="1.1" xmlns="http://www.w3.org/2000/svg" xmlns:xlink="http://www.w3.org/1999/xlink">
    <title>切片</title>
    <defs>
        <filter id="filter-1">
            <feColorMatrix in="SourceGraphic" type="matrix" values="0 0 0 0 0.129412 0 0 0 0 0.129412 0 0 0 0 0.129412 0 0 0 1.000000 0"></feColorMatrix>
        </filter>
        <filter id="filter-2">
            <feColorMatrix in="SourceGraphic" type="matrix" values="0 0 0 0 0.011765 0 0 0 0 0.035294 0 0 0 0 0.098039 0 0 0 1.000000 0"></feColorMatrix>
        </filter>
    </defs>
    <g id="我的" stroke="none" stroke-width="1" fill="none" fill-rule="evenodd">
        <g id="我的备份" transform="translate(-339.000000, -56.000000)">
            <g id="ic/扫一扫" transform="translate(339.000000, 56.000000)" filter="url(#filter-1)">
                <g filter="url(#filter-2)" id="编组">
                    <g>
                        <rect id="矩形" opacity="0.5" x="0" y="0" width="20" height="20"></rect>
                        <path d="M3,14 L3,16 L3,16 C3,16.5128358 3.38604019,16.9355072 3.88337887,16.9932723 L4,17 L5.99899988,17 C6.55136556,17 6.99922382,17.4476344 6.9995,18 C6.999776,18.5520087 6.5525083,18.9997239 6.00049963,18.9999999 C6.00033304,19 6.00016646,19 5.99999988,19 L4,19 L4,19 C2.34314575,19 1,17.6568542 1,16 L1,14 C1,13.4477153 1.44771525,13 2,13 C2.55228475,13 3,13.4477153 3,14 Z M19,14 L19,16 L19,16 C19,17.6568542 17.6568542,19 16,19 L14.0000001,19 C13.4476344,19 12.9997762,18.5523656 12.9995,18 C12.999224,17.4479913 13.4464917,17.0002761 13.9985004,17.0000001 C13.998667,17 13.9988335,17 13.9990001,17 L16,17 L16,17 C16.5128358,17 16.9355072,16.6139598 16.9932723,16.1166211 L17,16 L17,14 C17,13.4477153 17.4477153,13 18,13 C18.5522847,13 19,13.4477153 19,14 Z M16,1 C17.6568542,1 19,2.34314575 19,4 L19,6 C19,6.55228475 18.5522847,7 18,7 C17.4477153,7 17,6.55228475 17,6 L17,4 L17,4 C17,3.48716416 16.6139598,3.06449284 16.1166211,3.00672773 L16,3 L13.9990001,3 C13.4469914,3 12.9994999,2.5525085 12.9994999,2.00049975 C12.9994999,2.00033317 12.9994999,2.00016658 12.9995,2 C12.9997762,1.44763439 13.4476344,1 14.0000001,1 L16,1 L16,1 Z M5.99899988,3 L4,3 L4,3 C3.48716416,3 3.06449284,3.38604019 3.00672773,3.88337887 L3,4 L3,6 C3,6.55228475 2.55228475,7 2,7 C1.44771525,7 1,6.55228475 1,6 L1,4 L1,4 C1,2.34314575 2.34314575,1 4,1 L5.99999988,1 C6.55200862,1 6.99950012,1.4474915 6.99950012,1.99950025 C6.99950012,1.99966683 6.99950008,1.99983342 6.9995,2 C6.99922382,2.55236561 6.55136556,3 5.99899988,3 Z M2,9 L18,9 C18.5522847,9 19,9.44771525 19,10 C19,10.5522847 18.5522847,11 18,11 L2,11 C1.44771525,11 1,10.5522847 1,10 C1,9.44771525 1.44771525,9 2,9 Z" id="形状" fill="#979797" fill-rule="nonzero"></path>
                    </g>
                </g>
            </g>
        </g>
    </g>
</svg>