<?xml version="1.0" encoding="UTF-8"?>
<svg width="20px" height="20px" viewBox="0 0 20 20" version="1.1" xmlns="http://www.w3.org/2000/svg" xmlns:xlink="http://www.w3.org/1999/xlink">
    <title>切片</title>
    <g id="我的" stroke="none" stroke-width="1" fill="none" fill-rule="evenodd">
        <g id="我的备份" transform="translate(-32.000000, -801.000000)" fill="#030919" fill-rule="nonzero">
            <g id="编组-13" transform="translate(16.000000, 559.000000)">
                <g id="编组-14备份-4" transform="translate(0.000000, 224.000000)">
                    <g id="编组-15" transform="translate(16.000000, 16.000000)">
                        <g id="ic/邀请好友" transform="translate(0.000000, 2.000000)">
                            <path d="M10,7 C11.6568542,7 13,8.34314575 13,10 C13,11.6568542 11.6568542,13 10,13 C8.34314575,13 7,11.6568542 7,10 C7,8.34314575 8.34314575,7 10,7 Z M10,8.5 C9.17157288,8.5 8.5,9.17157288 8.5,10 C8.5,10.8284271 9.17157288,11.5 10,11.5 C10.8284271,11.5 11.5,10.8284271 11.5,10 C11.5,9.17157288 10.8284271,8.5 10,8.5 Z" id="椭圆形"></path>
                            <path d="M11,0.577350269 L17.660254,4.42264973 C18.2790562,4.77991532 18.660254,5.44016936 18.660254,6.15470054 L18.660254,13.8452995 C18.660254,14.5598306 18.2790562,15.2200847 17.660254,15.5773503 L11,19.4226497 C10.3811978,19.7799153 9.61880215,19.7799153 9,19.4226497 L2.33974596,15.5773503 C1.72094381,15.2200847 1.33974596,14.5598306 1.33974596,13.8452995 L1.33974596,6.15470054 C1.33974596,5.44016936 1.72094381,4.77991532 2.33974596,4.42264973 L9,0.577350269 C9.61880215,0.220084679 10.3811978,0.220084679 11,0.577350269 Z M10.25,1.87638837 C10.1210829,1.80195804 9.96723634,1.78955299 9.83000941,1.83917321 L9.75,1.87638837 L3.08974596,5.72168784 C2.96082885,5.79611817 2.87316248,5.92315066 2.84752139,6.06680278 L2.83974596,6.15470054 L2.83974596,13.8452995 C2.83974596,13.9941601 2.90592614,14.1335977 3.01751198,14.2276296 L3.08974596,14.2783122 L9.75,18.1236116 C9.87891712,18.198042 10.0327637,18.210447 10.1699906,18.1608268 L10.25,18.1236116 L16.910254,14.2783122 C17.0391712,14.2038818 17.1268375,14.0768493 17.1524786,13.9331972 L17.160254,13.8452995 L17.160254,6.15470054 C17.160254,6.00583988 17.0940739,5.86640233 16.982488,5.77237043 L16.910254,5.72168784 L10.25,1.87638837 Z" id="多边形"></path>
                        </g>
                    </g>
                </g>
            </g>
        </g>
    </g>
</svg>