<?xml version="1.0" encoding="UTF-8"?>
<svg width="24px" height="24px" viewBox="0 0 24 24" version="1.1" xmlns="http://www.w3.org/2000/svg" xmlns:xlink="http://www.w3.org/1999/xlink">
    <title>切片</title>
    <defs>
        <filter id="filter-1">
            <feColorMatrix in="SourceGraphic" type="matrix" values="0 0 0 0 0.011765 0 0 0 0 0.035294 0 0 0 0 0.098039 0 0 0 1.000000 0"></feColorMatrix>
        </filter>
        <filter id="filter-2">
            <feColorMatrix in="SourceGraphic" type="matrix" values="0 0 0 0 0.011765 0 0 0 0 0.035294 0 0 0 0 0.098039 0 0 0 1.000000 0"></feColorMatrix>
        </filter>
    </defs>
    <g id="我的" stroke="none" stroke-width="1" fill="none" fill-rule="evenodd">
        <g id="我的备份" transform="translate(-175.000000, -290.000000)">
            <g id="编组-6" transform="translate(16.000000, 272.000000)">
                <g id="编组-3备份-2" transform="translate(147.000000, 16.000000)">
                    <g id="编组-4" transform="translate(10.000000, 0.000000)" filter="url(#filter-1)">
                        <g id="编组" transform="translate(2.000000, 2.000000)" filter="url(#filter-2)">
                            <g>
                                <rect id="矩形" opacity="0.5" x="0" y="0" width="24" height="24"></rect>
                                <g id="编组-20" transform="translate(2.249921, 2.250000)" fill="#979797" fill-rule="nonzero">
                                    <path d="M18.7412711,9.99992103 L18.843105,10.0057916 C19.2198687,10.0528871 19.4962439,10.3717836 19.5001167,10.7411922 L19.4942874,10.8430261 L19.4865652,10.904803 C18.8727732,15.8151396 14.6986289,19.5 9.75007897,19.5 C4.89316887,19.5 0.782248264,15.9503523 0.0513374621,11.1763231 L0.00587055791,10.8430261 C-0.0455063114,10.4320111 0.24603796,10.0571685 0.657052914,10.0057916 C1.03381662,9.95869613 1.38018553,10.1997497 1.47487054,10.5568385 L1.49428737,10.6569739 L1.5020095,10.7187509 C2.02197117,14.8784443 5.55801396,18 9.75007897,18 C13.8548093,18 17.3305669,15.0071543 17.961745,10.9773612 L17.9981484,10.7187509 L18.0058706,10.6569739 C18.052966,10.2802102 18.3718626,10.0038351 18.7412711,9.99992103 Z M9.75007897,0 C10.1297747,0 10.4435699,0.282153882 10.4932323,0.648229443 L10.500079,0.75 L10.5,10.939 L13.2197489,8.21966991 C13.4860154,7.95340335 13.9026791,7.9291973 14.1962906,8.14705176 L14.2804091,8.21966991 C14.5466756,8.48593648 14.5708817,8.90260016 14.3530272,9.19621165 L14.2804091,9.28033009 L10.2804091,13.2803301 C10.0141425,13.5465966 9.59747881,13.5708027 9.30386731,13.3529482 L9.21974888,13.2803301 L5.21974888,9.28033009 C4.92685566,8.98743687 4.92685566,8.51256313 5.21974888,8.21966991 C5.48601544,7.95340335 5.90267912,7.9291973 6.19629062,8.14705176 L6.28040905,8.21966991 L9,10.939 L9.00007897,0.75 C9.00007897,0.335786438 9.3358654,0 9.75007897,0 Z" id="形状结合"></path>
                                </g>
                            </g>
                        </g>
                    </g>
                </g>
            </g>
        </g>
    </g>
</svg>