<?xml version="1.0" encoding="UTF-8"?>
<svg width="24px" height="24px" viewBox="0 0 24 24" version="1.1" xmlns="http://www.w3.org/2000/svg" xmlns:xlink="http://www.w3.org/1999/xlink">
    <title>切片</title>
    <defs>
        <filter id="filter-1">
            <feColorMatrix in="SourceGraphic" type="matrix" values="0 0 0 0 0.011765 0 0 0 0 0.035294 0 0 0 0 0.098039 0 0 0 1.000000 0"></feColorMatrix>
        </filter>
        <filter id="filter-2">
            <feColorMatrix in="SourceGraphic" type="matrix" values="0 0 0 0 0.011765 0 0 0 0 0.035294 0 0 0 0 0.098039 0 0 0 1.000000 0"></feColorMatrix>
        </filter>
    </defs>
    <g id="我的" stroke="none" stroke-width="1" fill="none" fill-rule="evenodd">
        <g id="我的备份" transform="translate(-110.000000, -290.000000)">
            <g id="编组-6" transform="translate(16.000000, 272.000000)">
                <g id="编组-3备份" transform="translate(82.000000, 16.000000)">
                    <g id="编组-4" transform="translate(10.000000, 0.000000)" filter="url(#filter-1)">
                        <g id="编组" transform="translate(2.000000, 2.000000)" filter="url(#filter-2)">
                            <g>
                                <rect id="矩形" opacity="0.5" x="0" y="0" width="24" height="24"></rect>
                                <path d="M12.3945672,2.09227681 C12.5704169,2.17906382 12.7127529,2.32139981 12.7995399,2.49724951 L15.1992155,7.35952326 C15.3290988,7.62269554 15.580164,7.80510509 15.8705918,7.84730672 L21.2364295,8.62700857 C21.7237703,8.69782334 22.0614313,9.15029782 21.9906166,9.63763862 C21.9624178,9.83170029 21.8710324,10.0110541 21.7306081,10.147934 L17.8478515,13.9326863 C17.6376959,14.1375373 17.5417976,14.4326822 17.5914086,14.7219365 L18.508003,20.0660925 C18.5912508,20.5514641 18.265265,21.0124212 17.7798934,21.0956689 C17.5866159,21.1288186 17.3878006,21.0973294 17.2142266,21.0060761 L12.4148755,18.4829079 C12.1551089,18.3463406 11.8447753,18.3463406 11.5850087,18.4829079 L6.7856576,21.0060761 C6.34976674,21.2352375 5.81063536,21.0676502 5.58147398,20.6317593 C5.49022071,20.4581853 5.45873147,20.25937 5.49188116,20.0660925 L6.40847566,14.7219365 C6.45808666,14.4326822 6.36218828,14.1375373 6.15203271,13.9326863 L2.26927611,10.147934 C1.91663299,9.80419192 1.90941728,9.23966017 2.25315936,8.88701705 C2.39003926,8.74659272 2.56939307,8.65520738 2.76345474,8.62700857 L8.12929239,7.84730672 C8.41972025,7.80510509 8.67078545,7.62269554 8.80066874,7.35952326 L11.2003443,2.49724951 C11.4182897,2.05564383 11.9529615,1.87433138 12.3945672,2.09227681 Z M12,4.266 L10.1457729,8.02337182 C9.82419473,8.67496028 9.22566176,9.1419698 8.52278342,9.29899227 L8.34498987,9.33171725 L4.199,9.934 L7.19905025,12.8585567 C7.71937459,13.3657476 7.97857018,14.0793002 7.91070607,14.7962998 L7.88688814,14.9755041 L7.178,19.104 L10.886997,17.1552108 C11.5256869,16.8194316 12.2783457,16.79145 12.9360304,17.071266 L13.1128872,17.1552108 L16.821,19.104 L16.1129961,14.9755041 C15.9901642,14.2593391 16.1998862,13.5297116 16.6762312,12.9895362 L16.800834,12.8585567 L19.8,9.934 L15.6548943,9.33171725 C14.9358238,9.22723018 14.3067145,8.80230538 13.9401759,8.18235097 L13.8541114,8.02337182 L12,4.266 Z" id="星形" fill="#979797" fill-rule="nonzero"></path>
                            </g>
                        </g>
                    </g>
                </g>
            </g>
        </g>
    </g>
</svg>