<?xml version="1.0" encoding="UTF-8"?>
<svg width="24px" height="24px" viewBox="0 0 24 24" version="1.1" xmlns="http://www.w3.org/2000/svg" xmlns:xlink="http://www.w3.org/1999/xlink">
    <title>切片</title>
    <defs>
        <filter id="filter-1">
            <feColorMatrix in="SourceGraphic" type="matrix" values="0 0 0 0 0.129412 0 0 0 0 0.129412 0 0 0 0 0.129412 0 0 0 1.000000 0"></feColorMatrix>
        </filter>
    </defs>
    <g id="首页" stroke="none" stroke-width="1" fill="none" fill-rule="evenodd">
        <g transform="translate(-316.000000, -880.000000)" id="iPhone-X/Bars/Tab-Bar/4-Items">
            <g transform="translate(0.000000, 873.500000)">
                <g id="Item-4" transform="translate(304.000000, 6.500000)">
                    <g id="编组" transform="translate(12.000000, 0.000000)" filter="url(#filter-1)">
                        <g>
                            <rect id="矩形" opacity="0.300000012" x="0" y="0" width="24" height="24"></rect>
                            <path d="M21.4625877,20.2583227 L21.7850858,20.4638495 L22.4101132,20.8720612 C22.7569142,21.0985604 22.8544381,21.5633121 22.6279388,21.9101132 C22.4220304,22.2253868 22.0192192,22.3346463 21.6871257,22.1817339 L21.5898868,22.1279388 L20.9648595,21.7197272 C15.6026108,18.2175887 8.63902565,18.3722891 3.43759491,22.1091065 C3.1011947,22.3507835 2.63257053,22.2739951 2.39089353,21.9375949 C2.14921653,21.6011947 2.22600487,21.1325705 2.56240509,20.8908935 C8.16325198,16.8671272 15.627069,16.6304167 21.4625877,20.2583227 Z M12,2 C15.8659932,2 19,5.13400675 19,9 C19,12.8659932 15.8659932,16 12,16 C8.13400675,16 5,12.8659932 5,9 C5,5.13400675 8.13400675,2 12,2 Z M12,3.5 C8.96243388,3.5 6.5,5.96243388 6.5,9 C6.5,12.0375661 8.96243388,14.5 12,14.5 C15.0375661,14.5 17.5,12.0375661 17.5,9 C17.5,5.96243388 15.0375661,3.5 12,3.5 Z M10.4090097,10.5909903 C10.82873,11.0107105 11.3944739,11.25 12,11.25 C12.6055261,11.25 13.17127,11.0107105 13.5909903,10.5909903 C13.8838835,10.298097 14.3587572,10.298097 14.6516504,10.5909903 C14.9445436,10.8838835 14.9445436,11.3587572 14.6516504,11.6516504 C13.9534143,12.3498866 13.0074399,12.75 12,12.75 C10.9925601,12.75 10.0465857,12.3498866 9.34834957,11.6516504 C9.05545635,11.3587572 9.05545635,10.8838835 9.34834957,10.5909903 C9.64124279,10.298097 10.1161165,10.298097 10.4090097,10.5909903 Z" id="形状结合" fill="#2E3034" fill-rule="nonzero"></path>
                        </g>
                    </g>
                </g>
            </g>
        </g>
    </g>
</svg>