<?xml version="1.0" encoding="UTF-8"?>
<svg width="24px" height="24px" viewBox="0 0 24 24" version="1.1" xmlns="http://www.w3.org/2000/svg" xmlns:xlink="http://www.w3.org/1999/xlink">
    <title>切片</title>
    <defs>
        <filter id="filter-1">
            <feColorMatrix in="SourceGraphic" type="matrix" values="0 0 0 0 0.129412 0 0 0 0 0.129412 0 0 0 0 0.129412 0 0 0 1.000000 0"></feColorMatrix>
        </filter>
    </defs>
    <g id="首页" stroke="none" stroke-width="1" fill="none" fill-rule="evenodd">
        <g transform="translate(-222.000000, -880.000000)" id="iPhone-X/Bars/Tab-Bar/4-Items">
            <g transform="translate(0.000000, 873.500000)">
                <g id="Item-3" transform="translate(210.000000, 6.500000)">
                    <g id="编组" transform="translate(12.000000, 0.000000)" filter="url(#filter-1)">
                        <g>
                            <rect id="矩形" x="0" y="0" width="24" height="24"></rect>
                            <path d="M19,4 C20.6568542,4 22,5.34314575 22,7 L22,17 C22,18.6568542 20.6568542,20 19,20 L7,20 L3.51449576,22.0913025 C3.04091549,22.3754507 2.42665523,22.2218856 2.14250707,21.7483054 C2.04925783,21.59289 2,21.4150536 2,21.2338096 L2,7 C2,5.34314575 3.34314575,4 5,4 L19,4 Z M19,5.5 L5,5.5 C4.22030388,5.5 3.57955132,6.09488808 3.50686658,6.85553999 L3.5,7 L3.5,20.35 L6.22825637,18.7137606 C6.41475485,18.6018615 6.6227775,18.5321942 6.83772197,18.5088032 L7,18.5 L19,18.5 C19.7796961,18.5 20.4204487,17.9051119 20.4931334,17.14446 L20.5,17 L20.5,7 C20.5,6.22030388 19.9051119,5.57955132 19.14446,5.50686658 L19,5.5 Z M10.25,11 C10.6642136,11 11,11.3357864 11,11.75 C11,12.1642136 10.6642136,12.5 10.25,12.5 L7.75,12.5 C7.33578644,12.5 7,12.1642136 7,11.75 C7,11.3357864 7.33578644,11 7.75,11 L10.25,11 Z M16.25,11 C16.6642136,11 17,11.3357864 17,11.75 C17,12.1642136 16.6642136,12.5 16.25,12.5 L13.75,12.5 C13.3357864,12.5 13,12.1642136 13,11.75 C13,11.3357864 13.3357864,11 13.75,11 L16.25,11 Z" id="形状结合" fill="#2E3034" fill-rule="nonzero"></path>
                        </g>
                    </g>
                </g>
            </g>
        </g>
    </g>
</svg>