<?xml version="1.0" encoding="UTF-8"?>
<svg width="20px" height="20px" viewBox="0 0 20 20" version="1.1" xmlns="http://www.w3.org/2000/svg" xmlns:xlink="http://www.w3.org/1999/xlink">
    <title>切片</title>
    <defs>
        <filter id="filter-1">
            <feColorMatrix in="SourceGraphic" type="matrix" values="0 0 0 0 0.129412 0 0 0 0 0.129412 0 0 0 0 0.129412 0 0 0 1.000000 0"></feColorMatrix>
        </filter>
        <filter id="filter-2">
            <feColorMatrix in="SourceGraphic" type="matrix" values="0 0 0 0 0.011765 0 0 0 0 0.035294 0 0 0 0 0.098039 0 0 0 1.000000 0"></feColorMatrix>
        </filter>
    </defs>
    <g id="首页" stroke="none" stroke-width="1" fill="none" fill-rule="evenodd">
        <g transform="translate(-285.000000, -56.000000)" id="ic/下载" filter="url(#filter-1)">
            <g transform="translate(284.999895, 56.000000)" filter="url(#filter-2)" id="编组">
                <g transform="translate(0.000000, 0.000000)">
                    <rect id="矩形" opacity="0.5" x="0.000105287256" y="0" width="20" height="20"></rect>
                    <g id="编组-20" transform="translate(0.000000, 0.000000)" fill="#979797" fill-rule="nonzero">
                        <path d="M19.007585,9.99985725 L19.12414,10.0077221 C19.6330157,10.0713316 20.0045407,10.5068166 20.000248,11.0074797 L19.9923832,11.1240347 L19.984661,11.1858117 C19.3552306,16.2212555 15.074736,20 10.0001053,20 C5.01774058,20 0.800896881,16.3574152 0.0534858236,11.4592108 L0.00782741054,11.1240347 C-0.0606750818,10.5760148 0.328050614,10.0762246 0.876070553,10.0077221 C1.38494621,9.94411267 1.852236,10.2747459 1.97124231,10.7610792 L1.99238316,10.8759653 L2.00010529,10.9377423 C2.50442856,14.9723284 5.9341211,18 10.0001053,18 C13.9795792,18 17.3495496,15.0997949 17.9639636,11.1938821 L18.0001053,10.9377423 L18.0078274,10.8759653 C18.0714369,10.3670896 18.5069219,9.9955646 19.007585,9.99985725 Z M10.0001053,0 C10.5129411,0 10.9356124,0.38604019 10.9933776,0.883378875 L11.0001053,1 L11,9.585 L13.2929985,7.29289322 C13.6534825,6.93240926 14.2207135,6.90467972 14.6130047,7.20970461 L14.7072121,7.29289322 C15.067696,7.65337718 15.0954256,8.22060824 14.7904007,8.61289944 L14.7072121,8.70710678 L10.7072121,12.7071068 C10.3467281,13.0675907 9.77949705,13.0953203 9.38720584,12.7902954 L9.29299851,12.7071068 L5.29299851,8.70710678 C4.90247421,8.31658249 4.90247421,7.68341751 5.29299851,7.29289322 C5.65348247,6.93240926 6.22071352,6.90467972 6.61300473,7.20970461 L6.70721207,7.29289322 L9,9.585 L9.00010529,1 C9.00010529,0.44771525 9.44782054,0 10.0001053,0 Z" id="形状结合"></path>
                    </g>
                </g>
            </g>
        </g>
    </g>
</svg>