<?xml version="1.0" encoding="UTF-8"?>
<svg width="28px" height="28px" viewBox="0 0 28 28" version="1.1" xmlns="http://www.w3.org/2000/svg" xmlns:xlink="http://www.w3.org/1999/xlink">
    <title>切片</title>
    <defs>
        <filter id="filter-1">
            <feColorMatrix in="SourceGraphic" type="matrix" values="0 0 0 0 0.011765 0 0 0 0 0.035294 0 0 0 0 0.098039 0 0 0 1.000000 0"></feColorMatrix>
        </filter>
    </defs>
    <g id="首页" stroke="none" stroke-width="1" fill="none" fill-rule="evenodd">
        <g transform="translate(-38.000000, -196.000000)" id="编组-20">
            <g transform="translate(16.000000, 104.000000)">
                <g id="编组-7" transform="translate(8.000000, 16.000000)">
                    <g id="编组-3备份-5" transform="translate(0.000000, 76.000000)">
                        <g id="编组-4" transform="translate(14.000000, 0.000000)" filter="url(#filter-1)">
                            <g>
                                <rect id="矩形" opacity="0.100000001" transform="translate(14.000000, 14.000000) scale(-1, 1) translate(-14.000000, -14.000000) " x="0" y="0" width="28" height="28"></rect>
                                <g id="编组-21" transform="translate(3.000000, 6.000000)" fill="#979797" fill-rule="nonzero">
                                    <path d="M15,0 C16.6568542,0 18,1.34314575 18,3 L18,4.909 L20.4118283,3.15503396 C20.8584809,2.8301957 21.4838978,2.92894574 21.8087361,3.37559835 C21.9330418,3.54651866 22,3.75242754 22,3.96377005 L22,12.03623 C22,12.5885147 21.5522847,13.03623 21,13.03623 C20.7886575,13.03623 20.5827486,12.9692717 20.4118283,12.844966 L18,11.091 L18,13 C18,14.6568542 16.6568542,16 15,16 L3,16 C1.34314575,16 0,14.6568542 0,13 L0,3 C0,1.34314575 1.34314575,0 3,0 L15,0 Z M15,1.5 L3,1.5 C2.22030388,1.5 1.57955132,2.09488808 1.50686658,2.85553999 L1.5,3 L1.5,13 C1.5,13.7796961 2.09488808,14.4204487 2.85553999,14.4931334 L3,14.5 L15,14.5 C15.7796961,14.5 16.4204487,13.9051119 16.4931334,13.14446 L16.5,13 L16.5,3 C16.5,2.22030388 15.9051119,1.57955132 15.14446,1.50686658 L15,1.5 Z M20.5,4.945 L18,6.764 L18,9.235 L20.5,11.054 L20.5,4.945 Z M14.25,3 C14.6642136,3 15,3.33578644 15,3.75 C15,4.16421356 14.6642136,4.5 14.25,4.5 L11.75,4.5 C11.3357864,4.5 11,4.16421356 11,3.75 C11,3.33578644 11.3357864,3 11.75,3 L14.25,3 Z" id="形状结合"></path>
                                </g>
                            </g>
                        </g>
                    </g>
                </g>
            </g>
        </g>
    </g>
</svg>