<?xml version="1.0" encoding="UTF-8"?>
<svg width="12px" height="12px" viewBox="0 0 12 12" version="1.1" xmlns="http://www.w3.org/2000/svg" xmlns:xlink="http://www.w3.org/1999/xlink">
    <title>切片</title>
    <defs>
        <filter id="filter-1">
            <feColorMatrix in="SourceGraphic" type="matrix" values="0 0 0 0 0.588235 0 0 0 0 0.592157 0 0 0 0 0.600000 0 0 0 1.000000 0"></feColorMatrix>
        </filter>
    </defs>
    <g id="首页" stroke="none" stroke-width="1" fill="none" fill-rule="evenodd">
        <g transform="translate(-190.000000, -566.000000)" id="编组-19">
            <g transform="translate(16.000000, 472.000000)">
                <g id="编组-15" transform="translate(120.000000, 12.000000)">
                    <g id="编组-18" transform="translate(0.000000, 79.000000)">
                        <g id="编组-17备份" transform="translate(54.000000, 0.000000)">
                            <g id="编组-16" transform="translate(0.000000, 3.000000)" filter="url(#filter-1)">
                                <g>
                                    <rect id="矩形" opacity="0.200000003" x="0" y="0" width="12" height="12"></rect>
                                    <path d="M10.5,10 C10.7761424,10 11,10.2238576 11,10.5 C11,10.7761424 10.7761424,11 10.5,11 L1.5,11 C1.22385763,11 1,10.7761424 1,10.5 C1,10.2238576 1.22385763,10 1.5,10 L10.5,10 Z M6,1 C6.24545989,1 6.44960837,1.17687516 6.49194433,1.41012437 L6.5,1.5 L6.5,7.065 L8.7226499,5.58397485 C8.95241425,5.43079862 9.26284892,5.49288556 9.41602515,5.7226499 C9.5521818,5.92688487 9.51825397,6.19485937 9.34766266,6.35946839 L9.2773501,6.41602515 L6.2773501,8.41602515 L6.26389875,8.42476515 C6.24764492,8.43488476 6.23076784,8.44409742 6.2133383,8.45233233 L6.2773501,8.41602515 C6.24755257,8.43589017 6.21615437,8.45223075 6.18372348,8.46504689 C6.16521269,8.47248762 6.14605562,8.47876391 6.1264292,8.4838777 C6.11435775,8.48690829 6.10285936,8.48946277 6.091302,8.49160658 C6.06213263,8.49710474 6.03140443,8.5 6,8.5 C5.9919427,8.5 5.9838854,8.49980561 5.97583545,8.49941684 L6,8.5 C5.96859557,8.5 5.93786737,8.49710474 5.90806775,8.49156658 C5.89717462,8.48947032 5.88565912,8.48691268 5.87422541,8.48394314 C5.85394438,8.47876391 5.83478731,8.47248762 5.81617752,8.46512676 C5.81431101,8.46427015 5.8123493,8.46348047 5.8103915,8.46267784 L5.7866617,8.45233233 C5.76923216,8.44409742 5.75235508,8.43488476 5.73610125,8.42476515 L5.7226499,8.41602515 L2.7226499,6.41602515 C2.49288556,6.26284892 2.43079862,5.95241425 2.58397485,5.7226499 C2.7201315,5.51841493 2.98054173,5.44666581 3.19810057,5.54082354 L3.2773501,5.58397485 L5.5,7.065 L5.5,1.5 C5.5,1.22385763 5.72385763,1 6,1 Z" id="形状结合" fill="#D8D8D8"></path>
                                </g>
                            </g>
                        </g>
                    </g>
                </g>
            </g>
        </g>
    </g>
</svg>