<?xml version="1.0" encoding="UTF-8"?>
<svg width="28px" height="28px" viewBox="0 0 28 28" version="1.1" xmlns="http://www.w3.org/2000/svg" xmlns:xlink="http://www.w3.org/1999/xlink">
    <title>切片</title>
    <defs>
        <filter id="filter-1">
            <feColorMatrix in="SourceGraphic" type="matrix" values="0 0 0 0 0.011765 0 0 0 0 0.035294 0 0 0 0 0.098039 0 0 0 1.000000 0"></feColorMatrix>
        </filter>
    </defs>
    <g id="首页" stroke="none" stroke-width="1" fill="none" fill-rule="evenodd">
        <g transform="translate(-242.000000, -120.000000)" id="编组-20">
            <g transform="translate(16.000000, 104.000000)">
                <g id="编组-7" transform="translate(8.000000, 16.000000)">
                    <g id="编组-3备份-3" transform="translate(204.000000, -0.000000)">
                        <g id="编组-4" transform="translate(14.000000, -0.000000)" filter="url(#filter-1)">
                            <g>
                                <rect id="矩形" opacity="0.200000003" transform="translate(14.000000, 14.000000) scale(-1, 1) translate(-14.000000, -14.000000) " x="0" y="0" width="28" height="28"></rect>
                                <path d="M15.4117647,5.25294118 L24.4705882,10.0843137 C24.9578983,10.3442124 25.1422516,10.9499448 24.8823529,11.4372549 C24.7889855,11.6123189 24.6456522,11.7556522 24.4705882,11.8490196 L22.7498026,12.766 L22.75,21 C22.75,21.284079 22.5894982,21.5437764 22.3354102,21.6708204 C17.0881477,24.2944516 10.9118523,24.2944516 5.6645898,21.6708204 C5.44226278,21.5596569 5.29158773,21.3469307 5.25739283,21.1051753 L5.25,21 L5.24980261,12.767 L3.52941176,11.8490196 C3.04210169,11.5891209 2.85774835,10.9833885 3.11764706,10.4960784 C3.2110145,10.3210145 3.3543478,10.1776812 3.52941176,10.0843137 L12.5882353,5.25294118 C13.4705882,4.78235294 14.5294118,4.78235294 15.4117647,5.25294118 Z M21.2498026,13.566 L15.4117647,16.6803922 C14.5294118,17.1509804 13.4705882,17.1509804 12.5882353,16.6803922 L6.74980261,13.567 L6.75,20.528 L7.08422281,20.6812978 C11.4889235,22.6242925 16.5110765,22.6242925 20.9157772,20.6812978 L21.25,20.528 L21.2498026,13.566 Z M3.75,18 C4.16421356,18 4.5,18.3357864 4.5,18.75 L4.5,19.25 C4.5,19.6642136 4.16421356,20 3.75,20 C3.33578644,20 3,19.6642136 3,19.25 L3,18.75 C3,18.3357864 3.33578644,18 3.75,18 Z M3.75,13 C4.16421356,13 4.5,13.3357864 4.5,13.75 L4.5,16.25 C4.5,16.6642136 4.16421356,17 3.75,17 C3.33578644,17 3,16.6642136 3,16.25 L3,13.75 C3,13.3357864 3.33578644,13 3.75,13 Z M13.4442024,6.50675381 L13.2941176,6.57647059 L5.062,10.966 L13.2941176,15.3568627 C13.6862745,15.5660131 14.1481481,15.589252 14.5557976,15.4265795 L14.7058824,15.3568627 L22.937,10.966 L14.7058824,6.57647059 C14.3137255,6.36732026 13.8518519,6.34408134 13.4442024,6.50675381 Z" id="形状结合" fill="#0D52E6"></path>
                            </g>
                        </g>
                    </g>
                </g>
            </g>
        </g>
    </g>
</svg>