<?xml version="1.0" encoding="UTF-8"?>
<svg width="20px" height="20px" viewBox="0 0 20 20" version="1.1" xmlns="http://www.w3.org/2000/svg" xmlns:xlink="http://www.w3.org/1999/xlink">
    <title>切片</title>
    <g id="我的" stroke="none" stroke-width="1" fill="none" fill-rule="evenodd">
        <g id="我的备份" transform="translate(-32.000000, -577.000000)">
            <g id="编组-13" transform="translate(16.000000, 559.000000)">
                <g id="编组-15" transform="translate(16.000000, 16.000000)">
                    <g id="ic/邀请好友" transform="translate(0.000000, 2.000000)">
                        <rect id="矩形" opacity="0.300000012" x="0" y="0" width="20" height="20"></rect>
                        <path d="M10,11.5 C11.2255215,11.5 12.4118101,11.7852564 13.4834104,12.32527 C13.8533107,12.5116745 14.0020633,12.9626487 13.8156587,13.332549 C13.6292542,13.7024493 13.17828,13.8512019 12.8083797,13.6647974 C11.9449822,13.2297038 10.9897188,13 10,13 C6.54822031,13 3.75,15.7982203 3.75,19.25 C3.75,19.6642136 3.41421356,20 3,20 C2.58578644,20 2.25,19.6642136 2.25,19.25 C2.25,14.9697932 5.71979319,11.5 10,11.5 Z M15.5,12.5 C15.8796958,12.5 16.193491,12.7821539 16.2431534,13.1482294 L16.25,13.25 L16.25,15.499 L18.5,15.5 C18.9142136,15.5 19.25,15.8357864 19.25,16.25 C19.25,16.6296958 18.9678461,16.943491 18.6017706,16.9931534 L18.5,17 L16.25,16.999 L16.25,19.25 C16.25,19.6642136 15.9142136,20 15.5,20 C15.1203042,20 14.806509,19.7178461 14.7568466,19.3517706 L14.75,19.25 L14.75,16.999 L12.5,17 C12.0857864,17 11.75,16.6642136 11.75,16.25 C11.75,15.8703042 12.0321539,15.556509 12.3982294,15.5068466 L12.5,15.5 L14.75,15.499 L14.75,13.25 C14.75,12.8357864 15.0857864,12.5 15.5,12.5 Z M10,0 C12.7614237,0 15,2.23857625 15,5 C15,7.76142375 12.7614237,10 10,10 C7.23857625,10 5,7.76142375 5,5 C5,2.23857625 7.23857625,0 10,0 Z M10,1.5 C8.06700338,1.5 6.5,3.06700338 6.5,5 C6.5,6.93299662 8.06700338,8.5 10,8.5 C11.9329966,8.5 13.5,6.93299662 13.5,5 C13.5,3.06700338 11.9329966,1.5 10,1.5 Z" id="形状结合" fill="#030919" fill-rule="nonzero"></path>
                    </g>
                </g>
            </g>
        </g>
    </g>
</svg>