<?xml version="1.0" encoding="UTF-8"?>
<svg width="28px" height="28px" viewBox="0 0 28 28" version="1.1" xmlns="http://www.w3.org/2000/svg" xmlns:xlink="http://www.w3.org/1999/xlink">
    <title>切片</title>
    <defs>
        <filter id="filter-1">
            <feColorMatrix in="SourceGraphic" type="matrix" values="0 0 0 0 0.011765 0 0 0 0 0.035294 0 0 0 0 0.098039 0 0 0 1.000000 0"></feColorMatrix>
        </filter>
    </defs>
    <g id="首页" stroke="none" stroke-width="1" fill="none" fill-rule="evenodd">
        <g transform="translate(-106.000000, -196.000000)" id="编组-20">
            <g transform="translate(16.000000, 104.000000)">
                <g id="编组-7" transform="translate(8.000000, 16.000000)">
                    <g id="编组-3备份-6" transform="translate(68.000000, 76.000000)">
                        <g id="编组-4" transform="translate(14.000000, -0.000000)" filter="url(#filter-1)">
                            <g>
                                <rect id="矩形" opacity="0.100000001" transform="translate(14.000000, 14.000000) scale(-1, 1) translate(-14.000000, -14.000000) " x="0" y="0" width="28" height="28"></rect>
                                <g id="编组-2" transform="translate(5.250118, 5.249855)" fill="#979797" fill-rule="nonzero">
                                    <g id="编组-6" transform="translate(-0.000000, 0.000000)">
                                        <path d="M13.9614071,9.02782886 C14.1505702,9.9715972 14.217537,10.9351997 14.161026,11.8956463 L14.1438823,12.108145 L17.6855419,11.8040359 C18.3478025,11.7470122 18.7349787,12.5048155 18.3478461,13.004933 L18.2802124,13.0816011 L13.417208,17.9446055 C12.9448482,18.4169652 12.1572013,18.080603 12.1369398,17.4456313 L12.1402756,17.3429655 L12.4818823,13.757145 L12.144856,13.7866664 C6.08779509,14.308209 0.743290392,9.90029229 0.0700325327,3.8939277 L0.0411177638,3.60206364 C-0.0133615328,2.96935523 -0.0138294331,2.33350558 0.0404638116,1.69465131 L0.0914631746,1.21494937 L0.144783531,0.848589923 C0.190460464,0.534747754 0.428606504,0.283561276 0.739570411,0.221233611 C6.82255393,-0.998001655 12.7421719,2.94484534 13.9614071,9.02782886 Z M15.7638823,13.475145 L14.0018823,13.626145 L13.8308823,15.408145 L15.7638823,13.475145 Z M7.53355009,2.65014827 L7.49906003,2.89277455 C7.3280183,3.92143245 6.86872466,4.8566632 6.13544576,5.5899421 C5.19407661,6.53131125 3.92128353,7.01967485 2.54886881,7.02926501 C4.24390854,10.3665303 7.79966008,12.540654 11.7411029,12.3120169 L12.016174,12.2921963 L12.6288823,12.239145 L12.6361714,12.1630107 C12.7010525,11.4852852 12.694576,10.8033776 12.6173139,10.1284554 L12.5624669,9.72442968 L12.4906589,9.32261645 C11.8957659,6.35458845 10.0094059,3.97457973 7.53355009,2.65014827 Z M1.85054695,1.56359014 L1.55788229,1.60114496 L1.53422398,1.82760466 C1.51111667,2.10127342 1.4996643,2.37575283 1.4998823,2.65029757 L1.50897461,3.06207051 L1.53558795,3.47338243 C1.59573653,4.17193234 1.72861848,4.84675457 1.92613491,5.49103436 C3.16121804,5.64886672 4.29514583,5.30892168 5.07478559,4.52928192 C5.71779724,3.88627028 6.06236476,3.00255011 6.07455969,2.01689268 C4.74956567,1.56586835 3.31346876,1.396053 1.85054695,1.56359014 Z M3.39233509,2.48489623 C3.85539245,2.48489623 4.23077462,2.86027839 4.23077462,3.32333576 C4.23077462,3.78639313 3.85539245,4.16177529 3.39233509,4.16177529 C2.92927772,4.16177529 2.55389555,3.78639313 2.55389555,3.32333576 C2.55389555,2.86027839 2.92927772,2.48489623 3.39233509,2.48489623 Z" id="形状结合"></path>
                                    </g>
                                </g>
                            </g>
                        </g>
                    </g>
                </g>
            </g>
        </g>
    </g>
</svg>