<?xml version="1.0" encoding="UTF-8"?>
<svg width="24px" height="24px" viewBox="0 0 24 24" version="1.1" xmlns="http://www.w3.org/2000/svg" xmlns:xlink="http://www.w3.org/1999/xlink">
    <title>切片</title>
    <g id="首页" stroke="none" stroke-width="1" fill="none" fill-rule="evenodd">
        <g transform="translate(-35.000000, -880.000000)" id="iPhone-X/Bars/Tab-Bar/4-Items">
            <g transform="translate(0.000000, 873.500000)">
                <g id="Item-1" transform="translate(23.000000, 6.500000)">
                    <g id="编组" transform="translate(12.000000, 0.000000)">
                        <rect id="矩形" opacity="0.5" x="0" y="0" width="24" height="24"></rect>
                        <path d="M12,4 C14.7075423,4 16.9962157,5.79339122 17.7429348,8.2570884 C20.2066088,9.00378434 22,11.2924577 22,14 C22,17.3137085 19.3137085,20 16,20 L7.5,20 C4.46243388,20 2,17.5375661 2,14.5 C2,11.9623412 3.71861884,9.82608725 6.05542302,9.19167178 C6.44845617,6.26048398 8.96024593,4 12,4 Z" id="形状结合" fill="#2828FF"></path>
                        <path d="M8.62536345,9.82312187 C8.78402262,9.44049915 9.22281829,9.25894083 9.60544101,9.41760001 C10.2729292,9.69438214 10.8788837,10.1007091 11.3890873,10.6109127 C12.413394,11.6352194 13,13.0221117 13,14.5 C13,14.9142136 12.6642136,15.25 12.25,15.25 C11.8357864,15.25 11.5,14.9142136 11.5,14.5 C11.5,13.4240255 11.0742179,12.4173637 10.3284271,11.6715729 C9.95685563,11.3000014 9.51590448,11.0043185 9.0308853,10.8031994 C8.64826259,10.6445402 8.46670427,10.2057446 8.62536345,9.82312187 Z" id="路径" fill="#FFFFFF" fill-rule="nonzero"></path>
                    </g>
                </g>
            </g>
        </g>
    </g>
</svg>