<?xml version="1.0" encoding="UTF-8"?>
<svg width="24px" height="25px" viewBox="0 0 24 25" version="1.1" xmlns="http://www.w3.org/2000/svg" xmlns:xlink="http://www.w3.org/1999/xlink">
    <title>切片</title>
    <defs>
        <filter id="filter-1">
            <feColorMatrix in="SourceGraphic" type="matrix" values="0 0 0 0 0.129412 0 0 0 0 0.129412 0 0 0 0 0.129412 0 0 0 1.000000 0"></feColorMatrix>
        </filter>
    </defs>
    <g id="首页" stroke="none" stroke-width="1" fill="none" fill-rule="evenodd">
        <g id="动态" transform="translate(-35.000000, -736.000000)">
            <g id="iPhone-X/Bars/Tab-Bar/4-Items" transform="translate(0.000000, 730.000000)">
                <g id="Item-1" transform="translate(23.000000, 6.500000)">
                    <g id="编组" transform="translate(12.000000, 0.000000)" filter="url(#filter-1)">
                        <g>
                            <rect id="矩形" opacity="0.5" x="0" y="0" width="24" height="24"></rect>
                            <path d="M12,4 C14.7075423,4 16.9962157,5.79339122 17.7429348,8.2570884 C20.2066088,9.00378434 22,11.2924577 22,14 C22,17.3137085 19.3137085,20 16,20 L7.5,20 C4.46243388,20 2,17.5375661 2,14.5 C2,11.9623412 3.71861884,9.82608725 6.05542302,9.19167178 C6.44845617,6.26048398 8.96024593,4 12,4 Z M12,5.5 C9.81348534,5.5 7.96221689,7.06926968 7.5758315,9.17834857 L7.54211774,9.3910177 L7.40973802,10.3782876 L6.44842977,10.6392718 C4.72192515,11.1079979 3.5,12.6834493 3.5,14.5 C3.5,16.6421954 5.18396847,18.3910789 7.30035966,18.4951047 L7.5,18.5 L16,18.5 C18.4852814,18.5 20.5,16.4852814 20.5,14 C20.5,12.0751014 19.2802479,10.3872139 17.5071137,9.75810627 L17.3078553,9.69260429 L16.5401147,9.4599157 L16.3074215,8.69217646 C15.7374944,6.81178041 13.9961934,5.5 12,5.5 Z M9.60544101,9.41760001 C10.2729292,9.69438214 10.8788837,10.1007091 11.3890873,10.6109127 C12.413394,11.6352194 13,13.0221117 13,14.5 C13,14.9142136 12.6642136,15.25 12.25,15.25 C11.8357864,15.25 11.5,14.9142136 11.5,14.5 C11.5,13.4240255 11.0742179,12.4173637 10.3284271,11.6715729 C9.95685563,11.3000014 9.51590448,11.0043185 9.0308853,10.8031994 C8.64826259,10.6445402 8.46670427,10.2057446 8.62536345,9.82312187 C8.78402262,9.44049915 9.22281829,9.25894083 9.60544101,9.41760001 Z" id="形状" fill="#2E3034" fill-rule="nonzero"></path>
                        </g>
                    </g>
                </g>
            </g>
        </g>
    </g>
</svg>